<svg id="Capa_1" data-name="Capa 1" xmlns="http://www.w3.org/2000/svg" viewBox="0 0 568.07 556.15"><defs><style>.cls-1{fill:#b8aa8f;}.cls-2{fill:#822740;}.cls-3{fill:#822840;}.cls-4{fill:#b8aa90;}.cls-5{fill:#7b253c;}.cls-6{fill:#7e263e;}.cls-7{fill:#6d1f36;}.cls-8{fill:#77233b;}.cls-9{fill:#6b1f34;}.cls-10{fill:#716857;}.cls-11{fill:#6d2036;}.cls-12{fill:#511827;}.cls-13{fill:#78233b;}.cls-14{fill:#6c1f35;}.cls-15{fill:#b2a48a;}.cls-16{fill:#b3a48b;}.cls-17{fill:#7f263e;}.cls-18{fill:#716758;}.cls-19{fill:#a2947e;}.cls-20{fill:#601c2f;}.cls-21{fill:#b3a58b;}.cls-22{fill:#6f2037;}.cls-23{fill:#b3a48a;}.cls-24{fill:#a4967f;}.cls-25{fill:#501927;}.cls-26{fill:#b4a68c;}.cls-27{fill:#5f1b2f;}.cls-28{fill:#5f1b2e;}.cls-29{fill:#998d77;}.cls-30{fill:#6d2035;}.cls-31{fill:#732138;}.cls-32{fill:#a99b83;}.cls-33{fill:#877c69;}.cls-34{fill:#79243b;}.cls-35{fill:#6f6656;}.cls-36{fill:#732139;}.cls-37{fill:#a3957e;}.cls-38{fill:#5e1b2e;}.cls-39{fill:#958873;}.cls-40{fill:#ab9d84;}.cls-41{fill:#ad9f86;}.cls-42{fill:#651e31;}.cls-43{fill:#a4977f;}.cls-44{fill:#a49780;}.cls-45{fill:#6c6253;}.cls-46{fill:#611d30;}.cls-47{fill:#4f1926;}.cls-48{fill:#9a8e78;}.cls-49{fill:#5b192c;}.cls-50{fill:#702037;}.cls-51{fill:#a1947d;}.cls-52{fill:#8f836f;}.cls-53{fill:#867b68;}.cls-54{fill:#958a74;}.cls-55{fill:#ac9f86;}.cls-56{fill:#ab9d85;}.cls-57{fill:#ac9f85;}.cls-58{fill:#6b6052;}.cls-59{fill:#541729;}.cls-60{fill:#978b75;}.cls-61{fill:#ab9e84;}.cls-62{fill:#807664;}.cls-63{fill:#651d31;}.cls-64{fill:#ad9f85;}.cls-65{fill:#6c6353;}.cls-66{fill:#a0937c;}.cls-67{fill:#531628;}.cls-68{fill:#998c76;}.cls-69{fill:#776d5c;}.cls-70{fill:#59192b;}.cls-71{fill:#8c816d;}.cls-72{fill:#9f927c;}.cls-73{fill:#691f34;}.cls-74{fill:#776d5d;}.cls-75{fill:#6a6052;}.cls-76{fill:#897e6b;}.cls-77{fill:#a69981;}.cls-78{fill:#621d30;}.cls-79{fill:#6a5e50;}.cls-80{fill:#796f5e;}.cls-81{fill:#9a8d77;}.cls-82{fill:#928670;}.cls-83{fill:#827765;}.cls-84{fill:#918671;}.cls-85{fill:#5c1a2d;}.cls-86{fill:#908570;}.cls-87{fill:#4b1725;}.cls-88{fill:#9f927b;}.cls-89{fill:#a69881;}.cls-90{fill:#4b1625;}.cls-91{fill:#837966;}.cls-92{fill:#786f5e;}.cls-93{fill:#6a5f51;}.cls-94{fill:#796f5d;}.cls-95{fill:#837765;}.cls-96{fill:#786e5d;}.cls-97{fill:#8a7e6a;}.cls-98{fill:#8e836e;}.cls-99{fill:#786e5c;}.cls-100{fill:#7e7462;}.cls-101{fill:#897e6a;}.cls-102{fill:#716757;}.cls-103{fill:#9c8f79;}.cls-104{fill:#998d76;}.cls-105{fill:#90846f;}.cls-106{fill:#887d69;}.cls-107{fill:#817664;}.cls-108{fill:#695f51;}.cls-109{fill:#a59880;}.cls-110{fill:#8e826e;}.cls-111{fill:#55555a;}</style></defs><title>Logo2021</title><path class="cls-1" d="M481.66,332.34a2.63,2.63,0,0,0-.49,1.32v13.41c0,.49.06,1,.59,1.21a1.7,1.7,0,0,1,.16.86c0,5.88,0,11.76,0,17.64a19.77,19.77,0,0,1-.23,3.08,3.24,3.24,0,0,0-.53,2.49q0,30.12.06,60.25c0,1-.06,1.91-.1,2.86-.66,0-.76-.49-.9-1a5.68,5.68,0,0,1-.11-1.09c0-.49,0-1,0-1.47s0-1.25,0-1.88,0-1.53,0-2.3,0-1.53,0-2.3,0-1.46,0-2.19c.35-2.11-.55-3.36-2.44-4.38-4.09-2.19-8.09-4.53-12.06-6.92-1.46-.88-2.22-.79-2,1.15,0,.72,0,1.44,0,2.17s0,1.51,0,2.26a3.94,3.94,0,0,1-.38,1.88.48.48,0,0,1-.66.19c0-.64-.08-1.28-.08-1.92q0-83.94,0-167.88a4.45,4.45,0,0,1,2.62-4.48c5.44-3,10.79-6.23,16.17-9.36a3.47,3.47,0,0,1,.66,2.71c0,5.26,0,10.52,0,15.78a4.73,4.73,0,0,1-.72,3q0,8,0,15.95a3.3,3.3,0,0,1,.7,2.67c0,5.3,0,10.6,0,15.9a4.87,4.87,0,0,1-.72,2.94c0,4.64,0,9.27,0,13.91,0,.68-.25,1.46.5,2,.54,2.83.23,5.68.22,8.52C481.87,323.64,482.19,328,481.66,332.34Z" transform="translate(-256.38 -207.51)"/><path class="cls-1" d="M475.05,510.27c1.85-.34,3.27-1.55,4.85-2.43,2.43-1.35,4.83-2.76,7.23-4.15.68-.39,1.47-.66,1.76-1.51,6.21-3.62,12.24-7.57,18.77-10.62,3.21-1.22,6-3.24,8.94-4.9,1.7-1,3.6-1.65,4.93-3.2,3.87-2.76,8.15-4.86,12.23-7.27,2.1-1.24,4-2.8,6.52-3.34,3.57-1.61,6.82-3.78,10.21-5.72,10.66-6.11,21.29-12.28,31.93-18.42.62-.36,1.29-.62,1.93-.93a2.62,2.62,0,0,1,.78,2.17c.07,5.73.06,11.45,0,17.17a9.7,9.7,0,0,1-.3,1.4c-3.42,2.34-7.12,4.23-10.7,6.31q-33.46,19.38-67,38.71-31.2,18-62.41,36.05a3.9,3.9,0,0,1-4.57,0c-5.45-3.31-11.05-6.38-16.58-9.54,1.75-1.78,4.07-2.67,6.16-3.92,3.26-1.95,6.62-3.74,9.86-5.74a6.15,6.15,0,0,1,2.66-.93q6.57-3.78,13.16-7.54c.44-.25.79-.52.8-1.06,5.69-3.3,11.43-6.5,17.05-9.91C473.86,510.65,474.48,510.55,475.05,510.27Z" transform="translate(-256.38 -207.51)"/><path class="cls-2" d="M540.35,336l-42.92,24.77a6.11,6.11,0,0,1-.87.36c-.89-.9-.72-2.06-.73-3.15,0-3.81-.05-7.62,0-11.43a14.65,14.65,0,0,0-.82-5.61,45.24,45.24,0,0,1,5.51-3.32q67.69-39.09,135.38-78.19a3.63,3.63,0,0,1,4.32,0c4.7,2.88,9.52,5.54,14.28,8.31a5.91,5.91,0,0,1,2,1.31,3.06,3.06,0,0,1-1.69,1.61c-4.91,2.79-9.74,5.73-14.7,8.44-.61.34-1.2.8-2,.57l-13.55,7.69c-.28,1.05-1.17,1.44-2,1.91q-7.15,4.05-14.23,8.22a7,7,0,0,1-3.11,1.08c-4.35,2.59-8.68,5.2-13.16,7.55a4.53,4.53,0,0,1-1.67,1.64c-5.08,3.08-10.31,5.91-15.42,8.93a3.17,3.17,0,0,1-2,.56l-13.66,8a4.16,4.16,0,0,1-1.76,1.56c-4.91,2.78-9.78,5.66-14.7,8.45A6,6,0,0,1,540.35,336Z" transform="translate(-256.38 -207.51)"/><path class="cls-2" d="M481.15,438.69l42.73,24.63c.41.24.77.56,1.15.83-1.3,1.75-3.39,2.33-5.13,3.38-4.23,2.55-8.46,5.08-12.87,7.31a11.21,11.21,0,0,1-2.95-1.54Q435.53,433.76,367,394.25a3.44,3.44,0,0,1-2-3.53c.15-6.22.12-12.45.16-18.68.83-.5,1.56,0,2.23.35,4.83,2.77,9.64,5.59,14.46,8.37a15.49,15.49,0,0,1,1.62,1.38c4.63,2.83,9.27,5.65,14.13,8.09,2.48.68,4.52,2.23,6.69,3.5,3.76,2.19,7.66,4.14,11.21,6.66.16.18.31.34.48.5,4.38,2.81,9,5.27,13.46,7.87a2.18,2.18,0,0,1,1.31.18c5.74,3.48,11.68,6.63,17.37,10.19.15.17.3.34.44.52a159.33,159.33,0,0,0,13.95,8l.33,0c6.06,3.16,11.93,6.66,17.78,10.19A6.7,6.7,0,0,1,481.15,438.69Z" transform="translate(-256.38 -207.51)"/><path class="cls-3" d="M599.74,476.34l0-16a3.78,3.78,0,0,1-.77-2.9c0-5.22,0-10.44,0-15.66a5.61,5.61,0,0,1,.72-2.95c0-3.12.06-6.23.1-9.35,0-4.69,2.58-7.27,7.25-7.32,3.28,0,6.56,0,9.83,0,1.11,0,1.67.31,1.54,1.49a13.83,13.83,0,0,0,0,1.44q0,67.11.05,134.22a4,4,0,0,1-2.36,4.08c-5.34,2.87-10.56,5.94-15.84,8.94C599,572,599.06,570.91,599,570c-.12-5.43-.08-10.85,0-16.28a3.54,3.54,0,0,1,.69-2.24c.2-5.37.13-10.73,0-16.1a3.65,3.65,0,0,1-.75-2.68c0-5.32,0-10.64,0-16a4.6,4.6,0,0,1,.7-2.73c.24-5.38.13-10.77.07-16.16a3,3,0,0,1-.74-2.42c-.06-5.47,0-10.93,0-16.39A4.79,4.79,0,0,1,599.74,476.34Z" transform="translate(-256.38 -207.51)"/><path class="cls-4" d="M430.24,409.07c-.31,0-.68.1-.86-.31.75-.82.44-1.83.45-2.75q.06-24.45.09-48.91,0-44.36-.05-88.71a4,4,0,0,1,2.39-4.11c4.7-2.56,9.28-5.33,13.93-8a3.75,3.75,0,0,1,2.16-.88,4.07,4.07,0,0,1,.2,2.12q0,74.45,0,148.9c0,.56-.05,1.11-.08,1.67a.47.47,0,0,1-.65-.15,3.73,3.73,0,0,1-.4-1.82c0-.72,0-1.43,0-2.15a3.24,3.24,0,0,0-2-3.65c-4.21-2.28-8.29-4.78-12.45-7.14-1.87-1.06-1.89-1-2.05,1.25,0,.74,0,1.47,0,2.21s0,1.55,0,2.33,0,1.83,0,2.74c-.05.64,0,1.29,0,1.93s0,1.25,0,1.88c0,.37,0,.74,0,1.12a9.26,9.26,0,0,1-.11,1.49A1.37,1.37,0,0,1,430.24,409.07Z" transform="translate(-256.38 -207.51)"/><path class="cls-2" d="M474.37,493.56a4.39,4.39,0,0,1-1.71-.83Q419.85,462.27,367,431.82a3.45,3.45,0,0,1-2.07-3.53c.12-5.51,0-11,.06-16.54a4,4,0,0,1,.18-2.09c.75-.18,1.21.37,1.73.67Q429.07,446.17,491.22,482c.41.24.77.56,1.15.83A5.48,5.48,0,0,1,490,484.8L475.92,493A4.7,4.7,0,0,1,474.37,493.56Z" transform="translate(-256.38 -207.51)"/><path class="cls-1" d="M584.36,506.41c-3.5,2.39-7.27,4.32-10.93,6.44q-33.82,19.57-67.68,39.09l-27.62,15.93c-.62.36-1.28.66-1.89,1A2,2,0,0,1,474,569c-5.67-3.27-11.36-6.52-17-9.76,0-.84.68-.91,1.11-1.16q29.68-17.16,59.39-34.28,26.88-15.53,53.77-31.05c4.36-2.51,8.62-5.18,13.14-7.4a5.24,5.24,0,0,1,.27,2.8q0,7.74,0,15.48A9.59,9.59,0,0,1,584.36,506.41Z" transform="translate(-256.38 -207.51)"/><path class="cls-2" d="M496.51,302.47a18.46,18.46,0,0,1,3.43-2.15q51.66-29.82,103.33-59.68a3.83,3.83,0,0,1,4.53,0c5.26,3.18,10.62,6.18,15.93,9.25-.27.78-1,.94-1.48,1.24q-61.83,35.7-123.69,71.38c-.48.27-1,.47-1.51.7a4.18,4.18,0,0,1-.29-2.34C496.71,314.75,497,308.6,496.51,302.47Z" transform="translate(-256.38 -207.51)"/><path class="cls-3" d="M632.39,553.81V425.18c0-.4,0-.8,0-1.2,0-1.8,0-1.83,1.88-1.84q7.44,0,14.87,0c1.79,0,1.79,0,1.83,1.91,0,.32,0,.64,0,1q0,57.78,0,115.56a3.8,3.8,0,0,1-2.23,3.92c-4.78,2.58-9.43,5.38-14.14,8.09C634,552.94,633.4,553.26,632.39,553.81Z" transform="translate(-256.38 -207.51)"/><path class="cls-1" d="M672.24,278.08c3.21,1.46,6.14,3.41,9.19,5.14,5.69,3.23,11.42,6.43,17,9.88,9.57,5.93,15.22,14.55,17.09,25.67a33.64,33.64,0,0,1,.43,5.48q0,27.57,0,55.15a7.26,7.26,0,0,1-.92,4.14,5.68,5.68,0,0,1-4.86,3c-3.68,0-7.36,0-11,0-1.1,0-1.63-.4-1.57-1.54,0-.64,0-1.28,0-1.92q0-28.41,0-56.83c0-3.26-.19-6.53-1.62-9.6a17.19,17.19,0,0,0-7.12-7.84q-16.83-9.69-33.64-19.41c-.4-.24-.77-.55-1.15-.82C660,284.92,666,281.28,672.24,278.08Z" transform="translate(-256.38 -207.51)"/><path class="cls-1" d="M639.62,296.76c3.47,1.63,6.69,3.72,10,5.62q13.73,7.86,27.41,15.8c.69.4,1.41.78,2.05,1.24a9.38,9.38,0,0,1,4.27,7.89q0,28.65,0,57.31c0,1.93-.05,2-2.06,2q-7,0-13.91,0c-2.37,0-2.39,0-2.39-2.36q0-22.31,0-44.6a15.65,15.65,0,0,0-.27-3.33,9.61,9.61,0,0,0-4.79-6.56c-11.27-6.54-22.56-13-33.83-19.56a37.27,37.27,0,0,1-4.69-2.84c2.45-1.9,5.3-3.12,8-4.68C632.75,300.66,636.1,298.55,639.62,296.76Z" transform="translate(-256.38 -207.51)"/><path class="cls-2" d="M665,534.72V531.9q0-53.37,0-106.73c0-3.51-.38-3,3.08-3,4.4,0,8.8,0,13.2,0,2.18,0,2.18,0,2.2,2.27v.72q0,48.33,0,96.65a4,4,0,0,1-2.4,4.08c-4.64,2.5-9.15,5.23-13.73,7.85A4.66,4.66,0,0,1,665,534.72Z" transform="translate(-256.38 -207.51)"/><path class="cls-1" d="M585.38,543.38c-4.33,2.87-8.94,5.27-13.42,7.87q-30.37,17.61-60.8,35.14c-3.28,1.89-3.28,1.94-6.63,0-5-2.84-10-5.72-15.15-8.7a59.88,59.88,0,0,1,7.07-4.27q22.91-13.29,45.86-26.5l40.28-23.24a9.52,9.52,0,0,1,1.31-.55c1.41,1,1.2,2.51,1.23,3.92C585.27,532.52,584.91,538,585.38,543.38Z" transform="translate(-256.38 -207.51)"/><path class="cls-2" d="M442.32,512.65a43.43,43.43,0,0,1-5.43-3Q402,489.57,367.16,469.5a3.83,3.83,0,0,1-2.22-3.93c.13-5.35,0-10.7.06-16.06a5.69,5.69,0,0,1,.16-2.35c.79-.05,1.33.48,1.93.82q45.65,26.32,91.26,52.67a3.58,3.58,0,0,1,1.36.94c-1.24,2-3.52,2.64-5.38,3.79C450.34,507.83,446.12,509.88,442.32,512.65Z" transform="translate(-256.38 -207.51)"/><path class="cls-2" d="M496.08,265.14a6.54,6.54,0,0,1,2-1.3q36.42-21,72.83-42.06a3.45,3.45,0,0,1,4.09-.06c5.32,3.22,10.76,6.26,16.17,9.39-.17.73-.75.85-1.19,1.1l-91.11,52.58c-.41.23-.86.39-1.3.59-.92-.88-.76-2.05-.77-3.14,0-4.3,0-8.6,0-12.89A10.59,10.59,0,0,0,496.08,265.14Z" transform="translate(-256.38 -207.51)"/><path class="cls-1" d="M397.65,372.59c0-.71-.06-1.43-.06-2.15,0-27.74,0-55.48-.06-83.22a4.35,4.35,0,0,1,2.68-4.45c4.71-2.53,9.3-5.3,13.94-8,.47-.27.88-.7,1.52-.63.51.43.28,1,.28,1.54q0,53.48,0,107c0,.48,0,1-.08,1.44-4.95-4.15-11-6.57-16.3-10.11A9.51,9.51,0,0,1,397.65,372.59Z" transform="translate(-256.38 -207.51)"/><path class="cls-1" d="M607,315.48c3.49,1.6,6.68,3.73,10,5.62,9.16,5.21,18.22,10.61,27.43,15.74,4.62,2.57,6.71,6.22,6.66,11.47-.11,11.74,0,23.49,0,35.23,0,.56,0,1.12,0,1.68.05,1-.47,1.4-1.46,1.39-2.23,0-4.47,0-6.71,0H634.7c-2.27,0-2.29,0-2.3-2.21,0-3.75,0-7.51,0-11.26,0-5.2,0-10.39,0-15.58a10,10,0,0,0-5.36-9.24q-18.56-10.72-37.13-21.43c-.41-.23-.77-.55-1.16-.82C594.79,322.48,600.91,319,607,315.48Z" transform="translate(-256.38 -207.51)"/><path class="cls-3" d="M697.63,515.91a4.21,4.21,0,0,1-.21-2.28q0-44.37,0-88.74c0-.4,0-.8,0-1.2-.09-1.09.29-1.59,1.49-1.57,3.51.06,7-.07,10.55.05,4,.14,6.5,2.79,6.5,6.82,0,18.86.24,37.74-.09,56.6-.22,12.69-6.19,22.57-16.68,29.7C698.74,515.59,698.34,516.06,697.63,515.91Z" transform="translate(-256.38 -207.51)"/><path class="cls-1" d="M574.32,334.21c4.16,2,8.07,4.52,12.09,6.81,8.87,5.07,17.69,10.24,26.55,15.34a10.21,10.21,0,0,1,5.48,9.43c0,6.23,0,12.46,0,18.69,0,2.08,0,2.1-2.15,2.12-3.27,0-6.55,0-9.83,0-4-.06-6.54-2.56-6.64-6.61-.06-2.55-.14-5.12,0-7.66.11-1.73-.64-2.57-2-3.37q-20.06-11.49-40-23.1a6.74,6.74,0,0,1-.75-.57c1.2-2.31,3.71-2.86,5.67-4.12C566.48,338.72,570.64,336.87,574.32,334.21Z" transform="translate(-256.38 -207.51)"/><path class="cls-3" d="M495.12,228.2a26.14,26.14,0,0,1,4.26-2.61c7.58-4.4,15.13-8.9,22.81-13.14,11.24-6.21,22.78-6.54,34.46-1.13.5.24,1,.49,1.49.76a4.7,4.7,0,0,1,.56.46,3.52,3.52,0,0,1-1.49,1.08q-29.54,17.06-59.08,34.09a3.18,3.18,0,0,1-1.5.69,2.22,2.22,0,0,1-1.67-2.34C494.88,240.11,494.56,234.15,495.12,228.2Z" transform="translate(-256.38 -207.51)"/><path class="cls-1" d="M584.51,581.35c-3.47,2.42-7.25,4.32-10.89,6.46-4.73,2.81-9.55,5.48-14.3,8.26a36.63,36.63,0,0,1-19.86,5.25,34.55,34.55,0,0,1-17.47-5c2.08-1.24,4-2.4,5.89-3.5q26.54-15.33,53.08-30.62a7.12,7.12,0,0,1,2.36-1.12c1.13.39,1.29,1.39,1.3,2.34C584.65,569.38,584.88,575.37,584.51,581.35Z" transform="translate(-256.38 -207.51)"/><path class="cls-3" d="M408.71,531.39A12,12,0,0,1,406,530q-10.92-6.22-21.82-12.48c-10.92-6.26-17.2-15.66-18.95-28.1a14.29,14.29,0,0,1-.11-3.81c.66-.2,1.08.25,1.54.51l59.43,34a10.29,10.29,0,0,1,.94.69A150.42,150.42,0,0,1,408.71,531.39Z" transform="translate(-256.38 -207.51)"/><path class="cls-1" d="M365.08,356.28c0-11.59-.41-23.19.1-34.74.46-10.17,5.09-18.67,12.93-25.27C379.61,295,381,293.6,383,293c.62.64.41,1.31.41,1.91q0,33.92,0,67.82c0,.24,0,.48-.06.72-1.24.77-2.13-.19-3.05-.7-3.84-2.13-7.63-4.36-11.41-6.61C367.45,355.33,366.31,354.89,365.08,356.28Z" transform="translate(-256.38 -207.51)"/><path class="cls-5" d="M495,340.89c1.72.41,1.54,1.79,1.54,3,0,5.72,0,11.43,0,17.15a18.31,18.31,0,0,1-4.29,2.48,2.1,2.1,0,0,1-.72-1.7c0-6.35-.3-12.7.12-19A11.16,11.16,0,0,1,495,340.89Z" transform="translate(-256.38 -207.51)"/><path class="cls-6" d="M496.51,302.47a3.13,3.13,0,0,1,1,2.55q0,8.07,0,16.15a4.86,4.86,0,0,1-.48,2.06,11.12,11.12,0,0,1-3.35,1.94,3.21,3.21,0,0,1-.62-2c-.2-6.24-.28-12.49,0-18.73a6.08,6.08,0,0,1,2.45-1.41c.27-.27.79-.11,1-.55Z" transform="translate(-256.38 -207.51)"/><path class="cls-7" d="M484.08,499.21a15.34,15.34,0,0,1-3.89-2.28c-.24-1,.63-1.17,1.2-1.5,4.83-2.81,9.68-5.6,14.49-8.44a3.36,3.36,0,0,1,3.19-.26,11.18,11.18,0,0,1,3.35,1.92C496.32,492.2,490.25,495.78,484.08,499.21Z" transform="translate(-256.38 -207.51)"/><path class="cls-5" d="M495.12,228.2c.78.7.46,1.63.47,2.46,0,4.82,0,9.65,0,14.47a4.36,4.36,0,0,0,1.05,3.27h0a3.84,3.84,0,0,0-.54.35,17.16,17.16,0,0,1-3.78,2.19,2,2,0,0,1-.76-1.69c0-6.37-.4-12.75.21-19.12a6.69,6.69,0,0,1,2.46-1.43c.2-.33.68-.18.89-.5Z" transform="translate(-256.38 -207.51)"/><path class="cls-8" d="M493.1,304.43c.88.65.56,1.6.57,2.43,0,4.86.07,9.73,0,14.58,0,1.25.78,2.48.06,3.73a11.38,11.38,0,0,1-3.34,1.93,2.09,2.09,0,0,1-.73-1.7c-.05-6.35-.29-12.7.12-19A11.09,11.09,0,0,1,493.1,304.43Z" transform="translate(-256.38 -207.51)"/><path class="cls-9" d="M489.75,306.36c.87.64.55,1.59.56,2.42,0,6.11,0,12.21.05,18.32a11.49,11.49,0,0,1-3.35,1.95,2.09,2.09,0,0,1-.74-1.7c0-6.35-.31-12.71.13-19.07A11.27,11.27,0,0,1,489.75,306.36Z" transform="translate(-256.38 -207.51)"/><path class="cls-10" d="M599.74,476.34v21.52l-2.9,1.36c-1.3-.28-1.14-1.39-1.16-2.26-.09-5.38-.07-10.77,0-16.15a3,3,0,0,1,1.2-2.71A13.08,13.08,0,0,1,599.74,476.34Z" transform="translate(-256.38 -207.51)"/><path class="cls-11" d="M451.44,517.93a11.92,11.92,0,0,1-3.35-1.94c-.22-1.09.54-1.64,1.29-2.06,4.79-2.67,9.38-5.72,14.32-8.14a2.83,2.83,0,0,1,2.71-.34,11.09,11.09,0,0,1,3.35,1.92c-5.19,2.58-9.91,6-15.1,8.56C453.51,516.5,452.56,517.34,451.44,517.93Z" transform="translate(-256.38 -207.51)"/><path class="cls-12" d="M507.66,491.56c-.23.69-.91.86-1.44,1.17q-7.44,4.33-14.91,8.64a3.39,3.39,0,0,1-2.42.81l-1.47-1a.91.91,0,0,0-.64-.39.2.2,0,0,1-.29-.14c0-1.21,1-1.54,1.83-2,4.78-2.52,9.33-5.46,14.06-8.05.76-.42,1.47-1,2.43-.57l0,0c.18.47.7.33,1,.57A4.65,4.65,0,0,1,507.66,491.56Z" transform="translate(-256.38 -207.51)"/><path class="cls-6" d="M408.71,531.39a3.8,3.8,0,0,1,.79-.85c4.65-2.67,9.29-5.37,14-7.94,1.14-.61,1.89-2,3.48-1.79a11.33,11.33,0,0,1,3.36,1.92c-6,3.69-12.19,7.06-18.28,10.59a6,6,0,0,1-2.42-1.39c-.2-.37-.67-.28-.94-.54Z" transform="translate(-256.38 -207.51)"/><path class="cls-6" d="M442.32,512.65c.06-1,.76-1.5,1.55-1.95,4.55-2.59,9.08-5.21,13.66-7.75.75-.42,1.21-1.31,2.18-1.36a10.84,10.84,0,0,1,3.34,1.93c-3.71,3.19-8.28,5-12.41,7.52a35.42,35.42,0,0,1-5.59,3.17A7.83,7.83,0,0,1,442.32,512.65Z" transform="translate(-256.38 -207.51)"/><path class="cls-13" d="M499.07,486.73a5.45,5.45,0,0,0-3.51,1.21c-1.38,1-3,1.71-4.45,2.61-3.54,2.15-7.19,4.13-10.79,6.19-.06,0-.09.13-.13.19a8.49,8.49,0,0,1-2.82-1.6c-.11-1.23.92-1.58,1.68-2.06,4.69-2.95,9.59-5.56,14.41-8.29a2.43,2.43,0,0,1,2.26-.18A11.09,11.09,0,0,1,499.07,486.73Z" transform="translate(-256.38 -207.51)"/><path class="cls-13" d="M445.05,514.21a5.14,5.14,0,0,1,1.71-1.6c4.86-2.93,10-5.43,14.74-8.54a7.12,7.12,0,0,1,1.55-.55,10.93,10.93,0,0,1,3.36,1.93c-1.41-.17-2.32.92-3.43,1.45-1.68.8-3.28,1.8-4.92,2.67-2.7,1.42-5.08,3.38-7.91,4.55a4.56,4.56,0,0,0-2.06,1.87,6.43,6.43,0,0,1-2.42-1.41c-.18-.15-.3-.39-.6-.36Z" transform="translate(-256.38 -207.51)"/><path class="cls-6" d="M495.72,484.8c-1.48-.27-2.26,1-3.34,1.57q-7.15,3.7-14,8a2.7,2.7,0,0,0-1,.95,7,7,0,0,1-2.41-1.41c-.2-.11-.31-.37-.58-.36h0c.79-1.34,2.29-1.7,3.49-2.42,4.51-2.71,9.17-5.16,13.6-8a3.58,3.58,0,0,1,.91-.27A11.09,11.09,0,0,1,495.72,484.8Z" transform="translate(-256.38 -207.51)"/><path class="cls-6" d="M507,474.84c1.05-1.89,3.18-2.28,4.81-3.31,4-2.52,8.17-4.77,12.28-7.12a4.54,4.54,0,0,1,.91-.26,10.72,10.72,0,0,1,3.34,1.93c-6.09,3.56-12.16,7.16-18.36,10.53a7.57,7.57,0,0,1-2.42-1.42c-.19-.12-.31-.33-.55-.36Z" transform="translate(-256.38 -207.51)"/><path class="cls-13" d="M412.07,533.32c.58-1.25,1.82-1.76,2.89-2.38,4.37-2.57,9-4.78,13.13-7.68a3.92,3.92,0,0,1,2.26-.53,6.24,6.24,0,0,1,2.47,1.42c-2.76,2.87-6.55,4.12-9.79,6.24-2.52,1.64-5.38,2.77-7.61,4.86A11.09,11.09,0,0,1,412.07,533.32Z" transform="translate(-256.38 -207.51)"/><path class="cls-14" d="M489.86,365a11.27,11.27,0,0,1-3.35,1.95,4.53,4.53,0,0,1-.31-2.57c-.14-6.06.38-12.13-.34-18.18a11.11,11.11,0,0,1,3.36-1.92c1.34,0,1.26,1.09,1.29,1.87.24,5.74-.05,11.49.19,17.23A1.78,1.78,0,0,1,489.86,365Z" transform="translate(-256.38 -207.51)"/><path class="cls-13" d="M510,476.61a5.1,5.1,0,0,1,2.34-1.95c3.82-2.24,7.66-4.46,11.55-6.56,1.43-.77,2.64-2.11,4.47-2a6.29,6.29,0,0,1,2.46,1.4c-.43,1.43-1.84,1.66-2.89,2.29-4.46,2.72-9.09,5.16-13.54,7.9a3.83,3.83,0,0,1-1.56.54,3.75,3.75,0,0,1-1.88-1.07,1.45,1.45,0,0,0-.62-.39A.25.25,0,0,1,510,476.61Z" transform="translate(-256.38 -207.51)"/><path class="cls-9" d="M486,233.47a11.26,11.26,0,0,1,3.36-1.93c1.13.07,1.19,1,1.21,1.73.16,5.82.18,11.65,0,17.47a3.25,3.25,0,0,1-.6,1.55l0,0c-.27,0-.39.24-.58.37A7.15,7.15,0,0,1,487,254c-.95-1-.72-2.22-.74-3.39C486.08,244.92,486.47,239.19,486,233.47Z" transform="translate(-256.38 -207.51)"/><path class="cls-15" d="M584.84,468.52c-.73-.72-.42-1.64-.43-2.48,0-6.08,0-12.17-.06-18.26a10.25,10.25,0,0,1,3.37-1.95,1.36,1.36,0,0,1,.34.87c-.13,6.68.17,13.36-.16,20A9.34,9.34,0,0,1,584.84,468.52Z" transform="translate(-256.38 -207.51)"/><path class="cls-16" d="M585.38,543.38c-1.33-.23-1-1.28-1-2.09,0-4.7,0-9.41,0-14.12a12.25,12.25,0,0,0-.51-4,10.34,10.34,0,0,1,3.35-1.95,1.88,1.88,0,0,1,.69,1.47c.1,6.43.35,12.86-.12,19.29A7.83,7.83,0,0,1,585.38,543.38Z" transform="translate(-256.38 -207.51)"/><path class="cls-15" d="M584.36,506.41c-.64-.57-.43-1.33-.43-2,0-5.51,0-11,0-16.53a5,5,0,0,1,.49-2.55,6.64,6.64,0,0,1,2.41-1.4,2.55,2.55,0,0,1,.71,1.95c0,6.26.22,12.51-.1,18.76A9.27,9.27,0,0,1,584.36,506.41Z" transform="translate(-256.38 -207.51)"/><path class="cls-17" d="M496.08,265.14c.79,0,1.45.14,1.43,1.15,0,.55,0,1.11,0,1.67l0,17.42a11.62,11.62,0,0,1-3.35,1.95c-.56-.8-.31-1.7-.32-2.56-.09-6.07.28-12.15-.25-18.21A6.57,6.57,0,0,1,496.08,265.14Z" transform="translate(-256.38 -207.51)"/><path class="cls-18" d="M599.71,438.82l.06,21.51c-.94,0-1.56.84-2.43,1-1.1-.13-1.13-1.05-1.15-1.79-.16-5.73-.14-11.46,0-17.19a3.75,3.75,0,0,1,.63-1.79A11.76,11.76,0,0,1,599.71,438.82Z" transform="translate(-256.38 -207.51)"/><path class="cls-19" d="M592.6,501.67a7.07,7.07,0,0,1-2.45,1.41c-2.28.21-2.07-1.6-2.13-2.88-.19-4.23-.08-8.47-.06-12.71,0-1.57-.31-3.22.72-4.64a11.65,11.65,0,0,1,3.37-2c.55.79.31,1.68.32,2.53C592.44,489.5,592.1,495.59,592.6,501.67Z" transform="translate(-256.38 -207.51)"/><path class="cls-20" d="M504.81,490c-2.24.84-4.15,2.31-6.24,3.44-3.9,2.12-7.7,4.44-11.54,6.69a3.79,3.79,0,0,0-.54.45,7.05,7.05,0,0,1-2.41-1.41c.62-1.22,1.85-1.72,2.92-2.36,4.07-2.42,8.19-4.77,12.31-7.12a3.63,3.63,0,0,1,5.5.31Z" transform="translate(-256.38 -207.51)"/><path class="cls-21" d="M365.08,356.28c.77-.54.13-1.57.77-2.18.78-.09,1.3.44,1.91.8q6.78,3.94,13.58,7.84a4.06,4.06,0,0,0,2,.74v3.37c-1.41.5-2.45-.38-3.53-1q-5.9-3.44-11.82-6.83a3.51,3.51,0,0,0-2.9-.34Z" transform="translate(-256.38 -207.51)"/><path class="cls-21" d="M574.32,334.21a2,2,0,0,1-1.12,1.72c-2.07,1.15-4.18,2.23-6.23,3.42-3.34,1.94-6.65,3.95-10,5.93a11.68,11.68,0,0,1-3.36-1.92c6.05-3.6,12.2-7,18.27-10.56A6.66,6.66,0,0,1,574.32,334.21Z" transform="translate(-256.38 -207.51)"/><path class="cls-22" d="M415.42,535.25c-.34-.7-.16-1.12.55-1.52,4.62-2.58,9.19-5.26,13.83-7.8,1-.56,1.7-1.74,3-1.78a11.2,11.2,0,0,1,3.36,1.91c-5,2.43-9.66,5.49-14.54,8.14-1.34.72-2.5,1.69-3.81,2.45A6.17,6.17,0,0,1,415.42,535.25Z" transform="translate(-256.38 -207.51)"/><path class="cls-21" d="M639.62,296.76a4,4,0,0,1-2.5,2.07,5.28,5.28,0,0,0-1.47.76c-2.75,1.7-5.54,3.31-8.35,4.89a38.9,38.9,0,0,0-4.31,2.45,2.43,2.43,0,0,1-1.58.42,7.12,7.12,0,0,1-2.45-1.43c3.6-2.61,7.63-4.52,11.4-6.86,2.06-1.27,4.57-1.95,5.9-4.25A12.15,12.15,0,0,1,639.62,296.76Z" transform="translate(-256.38 -207.51)"/><path class="cls-21" d="M672.24,278.08c-.25.66-.86.88-1.41,1.21-2.56,1.55-5,3.31-7.68,4.64s-5.09,3.09-7.75,4.46a3,3,0,0,1-1.38.26,7.42,7.42,0,0,1-2.45-1.42c3.9-3,8.33-5.16,12.57-7.63,1.83-1.07,3.56-2.41,5.69-2.92A6.64,6.64,0,0,1,672.24,278.08Z" transform="translate(-256.38 -207.51)"/><path class="cls-23" d="M397.65,372.59a6.9,6.9,0,0,1,2.82,1.21c4.29,2.5,8.51,5.11,12.86,7.51a4.94,4.94,0,0,1,2.55,2.79v2.4c-4.11-2.2-8.06-4.7-12.08-7.05-2.11-1.23-4.52-2-6.15-4Z" transform="translate(-256.38 -207.51)"/><path class="cls-21" d="M607,315.48c-.41,1.54-1.94,1.77-3,2.43-4.06,2.48-8.2,4.81-12.33,7.16a4.87,4.87,0,0,1-2.88,1,7.25,7.25,0,0,1-2.45-1.42c6-3.76,12.12-7.13,18.26-10.56A6.87,6.87,0,0,1,607,315.48Z" transform="translate(-256.38 -207.51)"/><path class="cls-24" d="M397.66,380.26a10.22,10.22,0,0,1,0-2.87c.8-.34,1.39.19,2,.55,4.53,2.83,9.25,5.33,13.89,8,1.44.82,2.38,1.77,2.36,3.47v2.4c-4.66-2.92-9.49-5.56-14.22-8.37C400.2,382.53,398.38,382.09,397.66,380.26Z" transform="translate(-256.38 -207.51)"/><path class="cls-25" d="M540.28,472.85c-2.09,1.73-4.58,2.81-6.89,4.19-3.2,1.91-6.46,3.73-9.68,5.59a3.75,3.75,0,0,1-2.18.83l-1.45-1c-.16-1.45,1-1.92,1.94-2.42,4.35-2.35,8.54-5,12.83-7.41,1.09-.62,2.21-1.39,3.58-.74A3.89,3.89,0,0,1,540.28,472.85Z" transform="translate(-256.38 -207.51)"/><path class="cls-25" d="M442.29,529.5c-5.82,3.63-11.84,6.9-17.77,10.34a1.66,1.66,0,0,1-2.39-.73c-.61-1.14.25-1.57,1-2,4.85-2.86,9.81-5.53,14.63-8.44a2.61,2.61,0,0,1,2.69-.16A3.89,3.89,0,0,1,442.29,529.5Z" transform="translate(-256.38 -207.51)"/><path class="cls-26" d="M584.51,581.35c-.86-.63-.58-1.57-.58-2.41,0-5,0-10,0-14.94a4.35,4.35,0,0,0-.6-3l.06,0c.25-.07.36-.29.54-.44a11.2,11.2,0,0,1,3.36-1.95c-.32,7-.36,14.09,0,21.13A6.84,6.84,0,0,1,584.51,581.35Z" transform="translate(-256.38 -207.51)"/><path class="cls-27" d="M486,233.47c1.31.2,1,1.23,1,2,0,4.28,0,8.55,0,12.83V254a9.09,9.09,0,0,1-2.83,1.63c-.57-.78-.32-1.67-.34-2.53-.11-6.09.35-12.18-.3-18.26A6.25,6.25,0,0,1,486,233.47Z" transform="translate(-256.38 -207.51)"/><path class="cls-28" d="M486.4,308.28c.87.65.54,1.6.55,2.43,0,6.11,0,12.23.06,18.34a6.2,6.2,0,0,1-2.42,1.4,2.36,2.36,0,0,1-.74-1.94c0-6.28-.23-12.55.09-18.82A6.19,6.19,0,0,1,486.4,308.28Z" transform="translate(-256.38 -207.51)"/><path class="cls-29" d="M630.49,291.49a4.2,4.2,0,0,1,1.91,1.06,5.71,5.71,0,0,0,.52.38h0c0,1.3-1.12,1.69-2,2.14-4.75,2.6-9.41,5.36-14,8.23a2,2,0,0,1-2,.3,7.07,7.07,0,0,1-2.7-1.51c1.71-1.85,4.11-2.64,6.18-3.94,3.43-2.16,7.1-3.89,10.49-6.12A2.89,2.89,0,0,1,630.49,291.49Z" transform="translate(-256.38 -207.51)"/><path class="cls-30" d="M486.93,270.41a6.53,6.53,0,0,1,2.46-1.42c2-.22,1.6,1.38,1.64,2.37.17,3.42.06,6.84.07,10.26,0,1.67,0,3.34,0,5a4.94,4.94,0,0,1-.77,2.95,6.83,6.83,0,0,1-2.4,1.4c-.95-1-.72-2.22-.74-3.39C487.05,281.87,487.41,276.13,486.93,270.41Z" transform="translate(-256.38 -207.51)"/><path class="cls-31" d="M489.92,252.29c0-6.1,0-12.2-.09-18.3,0-.84.31-1.77-.52-2.45a6.55,6.55,0,0,1,2.45-1.41c.78.7.46,1.63.47,2.47,0,6.11.06,12.23.08,18.34A6.18,6.18,0,0,1,489.92,252.29Z" transform="translate(-256.38 -207.51)"/><path class="cls-32" d="M587.9,466.73c-.8-.55-.61-1.4-.61-2.17,0-5.39,0-10.79,0-16.18a7.32,7.32,0,0,1,.45-2.55,5.6,5.6,0,0,1,2.41-1.4,4.11,4.11,0,0,1,.31,2.56c.06,6.07-.23,12.13.2,18.19A7.84,7.84,0,0,1,587.9,466.73Z" transform="translate(-256.38 -207.51)"/><path class="cls-33" d="M596.86,478.1a5.27,5.27,0,0,0-.47,2.32c0,5.67,0,11.34,0,17,0,.62-.14,1.29.43,1.79a3.29,3.29,0,0,1-1.78,1,2.08,2.08,0,0,0-.57.35l-.46.23a3.26,3.26,0,0,1-.79-2.65c0-5.16,0-10.32,0-15.48a3.66,3.66,0,0,1,1.22-3.2A6.17,6.17,0,0,1,596.86,478.1Z" transform="translate(-256.38 -207.51)"/><path class="cls-34" d="M493.63,266.56c.79.1,1,.61,1,1.34,0,5.94,0,11.89,0,17.83a6.73,6.73,0,0,1-.41,1.6,6.31,6.31,0,0,1-2.42,1.39,4.54,4.54,0,0,1-.3-2.57c-.12-6.06.34-12.12-.3-18.17A6.17,6.17,0,0,1,493.63,266.56Z" transform="translate(-256.38 -207.51)"/><path class="cls-35" d="M599.68,514l.06,21.37-1.88.81c-1.11-.11-1.17-1-1.19-1.77-.17-5.74-.14-11.49,0-17.24a3.62,3.62,0,0,1,.64-1.78A6.32,6.32,0,0,1,599.68,514Z" transform="translate(-256.38 -207.51)"/><path class="cls-36" d="M489.86,365c.72-1.24-.09-2.47-.06-3.72.1-4.86.05-9.73,0-14.59,0-.83.31-1.79-.61-2.41a6.15,6.15,0,0,1,2.45-1.41c.87.64.55,1.59.56,2.42,0,6.11,0,12.21,0,18.32A6,6,0,0,1,489.86,365Z" transform="translate(-256.38 -207.51)"/><path class="cls-37" d="M589.66,519.82a3.38,3.38,0,0,1,1.81-1,1.84,1.84,0,0,1,.8,1.65c0,6.36.33,12.72-.2,19.07a8.68,8.68,0,0,1-2.83,1.62,3,3,0,0,1-.79-2.41c-.06-5.32,0-10.64,0-16A3.3,3.3,0,0,1,589.66,519.82Z" transform="translate(-256.38 -207.51)"/><path class="cls-33" d="M596.8,440.56q0,9.15.09,18.3c0,.83-.31,1.76.45,2.47a8.15,8.15,0,0,1-2.82,1.6c-.83-.72-.7-1.72-.71-2.65q0-7.72,0-15.44c0-1.19,0-2.4,1.13-3.2A3.9,3.9,0,0,1,596.8,440.56Z" transform="translate(-256.38 -207.51)"/><path class="cls-38" d="M485.86,346.15c1.09.14,1.11.93,1.1,1.76,0,2.15,0,4.29,0,6.44,0,3.25,0,6.51,0,9.76a6,6,0,0,1-.46,2.79,6.12,6.12,0,0,1-2.41,1.41c-.64-1.38-.29-2.83-.27-4.24.1-5.63-.35-11.27.24-16.9A3.27,3.27,0,0,1,485.86,346.15Z" transform="translate(-256.38 -207.51)"/><path class="cls-39" d="M594.45,479.5A5.94,5.94,0,0,0,594,482c0,6.26,0,12.53,0,18.79a2.25,2.25,0,0,1-1.43.84c-.79-.12-1-.62-1-1.35,0-5.95,0-11.9,0-17.84a6.31,6.31,0,0,1,.42-1.6A6.41,6.41,0,0,1,594.45,479.5Z" transform="translate(-256.38 -207.51)"/><path class="cls-40" d="M365.08,358.68c1-1.49,1-1.49,2.26-.73,4.45,2.61,8.88,5.23,13.35,7.8a19.83,19.83,0,0,0,2.64,1.1v2.86c-.51.48-1.05.27-1.54,0-5.18-2.81-10.21-5.88-15.32-8.81a2.67,2.67,0,0,1-.76-.85c.21.66.5,1.36-.63,1.51Z" transform="translate(-256.38 -207.51)"/><path class="cls-41" d="M587.24,579.82c-.85-.11-.92-.71-.92-1.39,0-5.79,0-11.59,0-17.38a4.94,4.94,0,0,1,1-2.35,2.58,2.58,0,0,1,1.45-.86c.85.82.69,1.9.7,2.92,0,4.93,0,9.87,0,14.81a8,8,0,0,0,.26,2.83A7,7,0,0,1,587.24,579.82Z" transform="translate(-256.38 -207.51)"/><path class="cls-42" d="M417.83,536.65c.13-1.49,1.49-1.79,2.44-2.36,4.07-2.45,8.2-4.79,12.32-7.15a5.91,5.91,0,0,1,3.59-1.08,3.24,3.24,0,0,1,1.79,1c-3.88,3.24-8.5,5.29-12.8,7.85-1.75,1-3.34,2.5-5.5,2.75A3.33,3.33,0,0,1,417.83,536.65Z" transform="translate(-256.38 -207.51)"/><path class="cls-43" d="M552.12,342.46a7.26,7.26,0,0,1-2.72-1.53,81.12,81.12,0,0,1,7.74-4.58c3.47-2,6.9-4.15,10.48-6a6.26,6.26,0,0,1,2.42,1.4c.32,1.15-.58,1.55-1.29,2-4.78,2.8-9.61,5.52-14.37,8.35A2.67,2.67,0,0,1,552.12,342.46Z" transform="translate(-256.38 -207.51)"/><path class="cls-44" d="M615,303.59a3.66,3.66,0,0,0,1.5-.65,151.9,151.9,0,0,1,13.39-7.83,21.59,21.59,0,0,0,3.08-2.19,5.14,5.14,0,0,1,2.4,1.38c.3.81-.3,1.16-.84,1.48-5,3-10.08,5.7-15,8.7a3.14,3.14,0,0,1-3,0A2.45,2.45,0,0,1,615,303.59Z" transform="translate(-256.38 -207.51)"/><path class="cls-35" d="M638.09,279.59,652.93,271c1.17-.68,2.36-1.33,3.54-2a3.47,3.47,0,0,1,1.83,1c.17,1.33-.91,1.79-1.75,2.28l-13.63,7.93a3.24,3.24,0,0,1-3,.34A4.76,4.76,0,0,1,638.09,279.59Z" transform="translate(-256.38 -207.51)"/><path class="cls-45" d="M572.93,317.17,592,306c-.16.81.66.91,1,1.36.63,1-.17,1.46-.83,1.87-4.84,3-10,5.52-14.76,8.64a3,3,0,0,1-2.74,0Z" transform="translate(-256.38 -207.51)"/><path class="cls-46" d="M451.44,517.93c.08-1.41,1.34-1.78,2.26-2.21,3.95-1.84,7.53-4.32,11.3-6.47,1.49-.86,2.89-1.95,4.76-1.88a2.58,2.58,0,0,1,1.55.89c-1,1.88-3.08,2.41-4.75,3.37-4.37,2.54-8.51,5.51-13.25,7.38A3.81,3.81,0,0,1,451.44,517.93Z" transform="translate(-256.38 -207.51)"/><path class="cls-44" d="M665.55,274.23a3.83,3.83,0,0,1,1.88,1c.61.9-.14,1.4-.68,1.73-5.46,3.28-10.8,6.75-16.64,9.36a7.67,7.67,0,0,1-2.78-1.57A145.6,145.6,0,0,1,665.55,274.23Z" transform="translate(-256.38 -207.51)"/><path class="cls-47" d="M475.05,510.27c-.24.91-1.12,1.07-1.77,1.45-4.94,2.89-9.89,5.74-14.84,8.6-.68.4-1.32.9-2.19.58-.17-.17-.35-.33-.53-.49-1.22-1.22.06-1.68.77-2.13,2.29-1.43,4.62-2.83,7-4.13s4.88-2.72,7.23-4.22c.72-.46,1.4-1.15,2.38-.64A5.78,5.78,0,0,1,475.05,510.27Z" transform="translate(-256.38 -207.51)"/><path class="cls-48" d="M567.62,330.34a3.38,3.38,0,0,1-1.47,1.5c-5.2,3-10.39,6-15.6,8.91a3.23,3.23,0,0,1-1.15.18,7.41,7.41,0,0,1-2.47-1.41c5.79-2.91,11.28-6.33,16.89-9.54a5.05,5.05,0,0,1,2-.65A3.3,3.3,0,0,1,567.62,330.34Z" transform="translate(-256.38 -207.51)"/><path class="cls-49" d="M419.67,537.68c2.89-2.19,6.24-3.64,9.29-5.6,2.45-1.58,5.22-2.65,7.45-4.6a2.19,2.19,0,0,1,1.56-.4,6.53,6.53,0,0,1,2.48,1.41,4.39,4.39,0,0,0-2.64.83c-2.45,1.6-5.05,3-7.6,4.42a51.37,51.37,0,0,0-5.1,3,5.54,5.54,0,0,1-1.71.83,1.57,1.57,0,0,0-1.27,1.52,3.88,3.88,0,0,1-1.9-1.07c-.19-.12-.29-.36-.56-.35Z" transform="translate(-256.38 -207.51)"/><path class="cls-50" d="M512.84,478.21a38.68,38.68,0,0,1,7-4.39l6.93-4,4.1-2.36a8,8,0,0,1,2.68,1.54c-6.16,3.4-12.26,6.9-18.25,10.59A6.13,6.13,0,0,1,512.84,478.21Z" transform="translate(-256.38 -207.51)"/><path class="cls-51" d="M365.08,361.56c.54-.35.37-1,.6-1.64,3.38,1.72,6.52,3.66,9.73,5.49a59.39,59.39,0,0,0,7.92,4.3v2.42c-1.14.49-2-.21-2.88-.72-3.94-2.27-7.94-4.44-11.8-6.86a6.43,6.43,0,0,0-3.57-1.07Z" transform="translate(-256.38 -207.51)"/><path class="cls-52" d="M565.84,329.33c-3.14,2.38-6.77,3.93-10.07,6a58.66,58.66,0,0,0-5.46,3.3,5,5,0,0,1-3.38.87,3,3,0,0,1-1.53-.91c2.5-2.29,5.58-3.63,8.53-5.15,3.26-1.68,6.15-4,9.46-5.56a3.51,3.51,0,0,1,1.82,1c.17.16.28.41.57.41Z" transform="translate(-256.38 -207.51)"/><path class="cls-53" d="M383.32,375.47a5.71,5.71,0,0,1,0,2.4c-1.13.75-2-.09-2.82-.58-4.35-2.48-8.67-5-13-7.52a3.14,3.14,0,0,0-2.41-.53,6.73,6.73,0,0,1,0-2.41c.62-1.92,1.86-1.05,2.82-.49,3,1.75,6.21,3.29,9.13,5.24C379.08,373,381.48,373.77,383.32,375.47Z" transform="translate(-256.38 -207.51)"/><path class="cls-48" d="M665.55,274.23c-1,1.35-2.52,1.86-3.87,2.63-4.16,2.36-8.36,4.68-12.4,7.25a3,3,0,0,1-1.95.69l-.05,0a1.3,1.3,0,0,0-.63-.39,1,1,0,0,1-.84-.49c.38-1.41,1.67-1.86,2.73-2.49,4.86-2.89,9.88-5.47,14.59-8.6a5.27,5.27,0,0,1,1.92,1.07,5.74,5.74,0,0,1,.5.36Z" transform="translate(-256.38 -207.51)"/><path class="cls-54" d="M596.92,309.67a1.19,1.19,0,0,1,.94.51c.21.35.67.25.91.54l0,0c.18.14.31.34.55.4l0,0c.23.93-.47,1.28-1.06,1.66-5,3.2-10.31,5.77-15.31,8.92a1.54,1.54,0,0,1-1.59.1,3.19,3.19,0,0,1-1.79-1c1.25-2.37,3.83-3,5.86-4.25C589.24,314.16,593.35,312.37,596.92,309.67Z" transform="translate(-256.38 -207.51)"/><path class="cls-55" d="M650.11,286.37c1.19-1.46,3-2,4.5-3,3.48-2.15,7.17-3.94,10.7-6,.83-.48,1.87-.95,2.12-2.1l1,.51.49.37h0c.22.32.69.22.92.52h0c-.8,1.35-2.35,1.57-3.55,2.29-4.48,2.71-9,5.3-13.58,7.91a5.73,5.73,0,0,1-1.13.35A2.16,2.16,0,0,1,650.11,286.37Z" transform="translate(-256.38 -207.51)"/><path class="cls-56" d="M588.68,482.85q0,8.67,0,17.35c0,1.19-.09,2.44,1.43,2.88a7.54,7.54,0,0,1-2.73,1.54c-.88-.63-.61-1.57-.61-2.41q0-9.15,0-18.3A3.42,3.42,0,0,1,588.68,482.85Z" transform="translate(-256.38 -207.51)"/><path class="cls-41" d="M552.12,342.46c3-1.37,5.76-3.24,8.65-4.84,2.61-1.43,5.17-3,7.78-4.4a3.29,3.29,0,0,0,1.49-1.48,3.49,3.49,0,0,1,1.87,1.06c0,.68-.5.92-1,1.21l-14.6,8.47a4.77,4.77,0,0,1-2.68.88A2.36,2.36,0,0,1,552.12,342.46Z" transform="translate(-256.38 -207.51)"/><path class="cls-57" d="M616.51,304.51a5.66,5.66,0,0,0,3.48-1.13c3.45-2.19,7.13-4,10.65-6.11,1.59-.94,3.37-1.61,4.7-3a1.22,1.22,0,0,1,.92.51c.61,1.51-.66,1.95-1.54,2.48-2.09,1.28-4.23,2.46-6.36,3.67-2.54,1.44-5.08,2.89-7.63,4.31a3.88,3.88,0,0,1-1.77.65A7.23,7.23,0,0,1,616.51,304.51Z" transform="translate(-256.38 -207.51)"/><path class="cls-58" d="M605.2,298.49q9.09-5.19,18.17-10.39c.41-.24.78-.55,1.17-.82.06.29.13.57.2.85s.67.23.89.54h0c.14.93-.61,1.26-1.18,1.6q-7.56,4.58-15.31,8.78a1.75,1.75,0,0,1-1.8.18C606.6,299.13,606,298.46,605.2,298.49Z" transform="translate(-256.38 -207.51)"/><path class="cls-59" d="M483.94,309.69c.91.62.6,1.57.61,2.4,0,6.12,0,12.24,0,18.36a6,6,0,0,1-2.41,1.41c-.57-2.19-.24-4.42-.23-6.62,0-4.84-.28-9.69.19-14.53A3.27,3.27,0,0,1,483.94,309.69Z" transform="translate(-256.38 -207.51)"/><path class="cls-60" d="M591.56,556.24a6.41,6.41,0,0,1,2.43-1.42c.5,4.92.14,9.85.17,14.78,0,2.19.55,4.47-.59,6.57a2.32,2.32,0,0,1-1.45.82c-1.27-.13-1.19-1.18-1.2-2-.07-5.58,0-11.16,0-16.74A3.77,3.77,0,0,1,591.56,556.24Z" transform="translate(-256.38 -207.51)"/><path class="cls-61" d="M589.66,519.82a5.33,5.33,0,0,0-.47,2.3q0,9.51,0,19a2.15,2.15,0,0,1-1.43.82c-.82-.67-.51-1.6-.52-2.44,0-6.1,0-12.21,0-18.31A6.17,6.17,0,0,1,589.66,519.82Z" transform="translate(-256.38 -207.51)"/><path class="cls-55" d="M604.56,314.08c-.7,1.52-2.31,1.91-3.55,2.64-4.21,2.48-8.54,4.76-12.68,7.37a3.37,3.37,0,0,1-2,.55,2.34,2.34,0,0,1-1.53-.9c.8-1.69,2.57-2.07,4-2.85,4.66-2.59,9.09-5.61,13.93-7.88A3.72,3.72,0,0,1,604.56,314.08Z" transform="translate(-256.38 -207.51)"/><path class="cls-59" d="M484.07,347.17c.61.46.49,1.13.49,1.75,0,5.7,0,11.39,0,17.09a5.05,5.05,0,0,1-.47,2.3,2.57,2.57,0,0,1-1.46.87c-.92-.89-.68-2.06-.71-3.15-.13-5.8.23-11.6-.19-17.4a.63.63,0,0,0,0-.36Z" transform="translate(-256.38 -207.51)"/><path class="cls-62" d="M597.29,515.41c0,6.11,0,12.22.08,18.33,0,.83-.3,1.76.49,2.46a3.35,3.35,0,0,1-1.8,1c-1.15,0-1.22-.89-1.23-1.64-.11-5.86-.12-11.71,0-17.57a2.56,2.56,0,0,1,.6-1.52A3.68,3.68,0,0,1,597.29,515.41Z" transform="translate(-256.38 -207.51)"/><path class="cls-59" d="M483.49,234.88c1.3.18,1.06,1.18,1.07,2,0,4,0,7.95,0,11.92,0,1.43,0,2.86,0,4.29a6.52,6.52,0,0,1-.44,2.56,2.48,2.48,0,0,1-1.48.85c-.86-.82-.71-1.9-.72-2.92,0-5,0-10.07,0-15.1a8.19,8.19,0,0,0-.21-2.61A3.2,3.2,0,0,1,483.49,234.88Z" transform="translate(-256.38 -207.51)"/><path class="cls-60" d="M594,463.26a3.47,3.47,0,0,1-1.82,1c-1.13-.05-1.21-1-1.24-1.72-.16-5.82-.19-11.65,0-17.47a2.49,2.49,0,0,1,.67-1.51,3.83,3.83,0,0,1,1.87-1.09c.75.7.51,1.62.52,2.46C594,451.06,594,457.16,594,463.26Z" transform="translate(-256.38 -207.51)"/><path class="cls-63" d="M486.93,270.41c1.31.21,1,1.25,1,2,0,4.75,0,9.5,0,14.25V291a3.91,3.91,0,0,1-1.89,1.08,2.63,2.63,0,0,1-.73-2.19c0-6.19-.13-12.38.07-18.56A2.59,2.59,0,0,1,486.93,270.41Z" transform="translate(-256.38 -207.51)"/><path class="cls-31" d="M491.18,268c1.28.18,1.05,1.18,1.05,2,0,4,0,8.08,0,12.13,0,1.35,0,2.7,0,4a5.44,5.44,0,0,1-.47,2.55,2.5,2.5,0,0,1-1.46.86c0-6.16,0-12.31,0-18.47,0-.79.42-1.86-.91-2.12A3.23,3.23,0,0,1,491.18,268Z" transform="translate(-256.38 -207.51)"/><path class="cls-64" d="M415.88,389.38c-.35-1.74-1.75-2.52-3.12-3.21-2.81-1.42-5.44-3.16-8.28-4.56a76.35,76.35,0,0,1-6.82-4.22c0-.64,0-1.28,0-1.93,4.39,2.23,8.6,4.78,12.84,7.27.88.52,1.84.94,2.71,1.48a7.49,7.49,0,0,1,2.68,2.29Z" transform="translate(-256.38 -207.51)"/><path class="cls-65" d="M599.7,551.49q0,9.16.09,18.32c0,.85-.25,1.77.5,2.48a2.34,2.34,0,0,1-1.45.85c-2,.25-1.62-1.31-1.64-2.33-.09-4.75,0-9.51,0-14.26,0-1.49-.2-3,1.1-4.2A2.53,2.53,0,0,1,599.7,551.49Z" transform="translate(-256.38 -207.51)"/><path class="cls-66" d="M591.6,443.59c0,6.09,0,12.18,0,18.27,0,.83-.29,1.77.55,2.43a2.91,2.91,0,0,1-1.52.89,1,1,0,0,1-.95-1.12c0-6.09,0-12.18,0-18.27a4.91,4.91,0,0,1,.4-1.36A2.16,2.16,0,0,1,591.6,443.59Z" transform="translate(-256.38 -207.51)"/><path class="cls-67" d="M482,273.23a.63.63,0,0,1,.66-.4c.22-.32.69-.19.91-.51h0c1.39-.51,1.56.65,1.58,1.41.18,5.88.16,11.78,0,17.67a3.21,3.21,0,0,1-.65,1.52l0,0c-.22.31-.67.2-.89.51a1.08,1.08,0,0,1-.94.55,2.58,2.58,0,0,1-.74-2.18C482,285.63,481.81,279.43,482,273.23Z" transform="translate(-256.38 -207.51)"/><path class="cls-68" d="M397.66,380.26a88.91,88.91,0,0,0,8.7,5.21c2,1.17,4,2.53,6.11,3.53a8.56,8.56,0,0,1,3.41,2.78v1.92c-2.53-.8-4.47-2.64-6.77-3.85-3.31-1.73-6.57-3.57-9.71-5.59a5.37,5.37,0,0,1-1.75-1.6A7.16,7.16,0,0,1,397.66,380.26Z" transform="translate(-256.38 -207.51)"/><path class="cls-69" d="M365.08,369.24l.76-1.14c5,2.94,10.05,5.89,15.08,8.81a5.16,5.16,0,0,0,2.4,1,5.3,5.3,0,0,1,0,2.41c-1,.45-1.71-.16-2.4-.61-4.26-2.79-8.92-4.87-13.18-7.64a6.47,6.47,0,0,0-2.67-.87A4.6,4.6,0,0,1,365.08,369.24Z" transform="translate(-256.38 -207.51)"/><path class="cls-70" d="M473.1,509.29c-1.5.19-2.44,1.41-3.61,2.14-3.09,1.91-6.37,3.45-9.46,5.34-1.26.78-2.51,1.58-3.8,2.32-.58.33-.77.71-.51,1.32a6.17,6.17,0,0,1-2.41-1.4,2.41,2.41,0,0,1,1.38-1.24c2.91-1.41,5.56-3.27,8.38-4.81s5.4-3.3,8.24-4.7a.21.21,0,0,1,.29.15,1.63,1.63,0,0,0,.62.37A.92.92,0,0,1,473.1,509.29Z" transform="translate(-256.38 -207.51)"/><path class="cls-71" d="M630.49,291.49c-2.58,2.41-5.86,3.74-8.84,5.53-2.5,1.5-5.09,2.89-7.62,4.37a3.9,3.9,0,0,1-1.76.69,2.9,2.9,0,0,1-1.54-.91A2.2,2.2,0,0,1,612,299.8c5.26-3,10.47-6.16,15.81-9.06a3.5,3.5,0,0,1,.92-.27A3.42,3.42,0,0,1,630.49,291.49Z" transform="translate(-256.38 -207.51)"/><path class="cls-72" d="M581.41,321.8c1.17,0,1.71-1.07,2.6-1.55,3.54-1.89,7.15-3.68,10.5-5.86,1.63-1.05,3.62-1.63,4.86-3.27a3.27,3.27,0,0,1,1.83,1c.22,1.18-.77,1.47-1.48,1.9-4.71,2.85-9.53,5.53-14.3,8.29a2.32,2.32,0,0,1-2.46.37h0c-.23-.3-.68-.18-.9-.49A.8.8,0,0,1,581.41,321.8Z" transform="translate(-256.38 -207.51)"/><path class="cls-49" d="M538.43,471.86c-1.38-.11-2.43.76-3.48,1.37-4.17,2.42-8.26,5-12.54,7.21a4.49,4.49,0,0,0-2.33,2,2.56,2.56,0,0,1-1.48-.87c-.63-1.26.36-1.74,1.15-2.21,4.5-2.66,9-5.35,13.56-7.91,1.1-.62,2.24-1.28,3.55-.5A2.7,2.7,0,0,1,538.43,471.86Z" transform="translate(-256.38 -207.51)"/><path class="cls-73" d="M515.26,479.61c0-.82.54-1.22,1.21-1.6,4.89-2.73,9.78-5.47,14.53-8.45a4.08,4.08,0,0,1,2.51-.54h0a1,1,0,0,0,.7.4.9.9,0,0,1,.85.5c-6,3.71-12.09,7.28-18.35,10.55A2.46,2.46,0,0,1,515.26,479.61Z" transform="translate(-256.38 -207.51)"/><path class="cls-74" d="M607.37,299.24c2.68-1,5-2.71,7.52-4,3.23-1.7,6.32-3.65,9.46-5.5a12.79,12.79,0,0,0,1.31-1,2.6,2.6,0,0,1,1.49.88c.3,1.15-.61,1.54-1.33,2-4.83,2.8-9.6,5.68-14.44,8.44a2.21,2.21,0,0,1-2.46.19A2.71,2.71,0,0,1,607.37,299.24Z" transform="translate(-256.38 -207.51)"/><path class="cls-75" d="M365.08,371.16c.55-.67,1-.89,1.93-.32,5.39,3.22,10.87,6.31,16.32,9.44a4.18,4.18,0,0,1,.08,1.86c-4.11-1.9-7.87-4.43-11.84-6.6-2.15-1.18-4.12-2.69-6.47-3.5C365.09,371.75,365.09,371.45,365.08,371.16Z" transform="translate(-256.38 -207.51)"/><path class="cls-76" d="M596.92,309.67a2.25,2.25,0,0,1-1.3,1.87c-3,1.65-5.91,3.34-8.9,4.95-2.44,1.31-4.77,2.8-7.1,4.29h0a1,1,0,0,0-.66-.38,3.46,3.46,0,0,1-1.8-1c6.21-3.33,12.34-6.82,18.3-10.57A2.64,2.64,0,0,1,596.92,309.67Z" transform="translate(-256.38 -207.51)"/><path class="cls-77" d="M583,322.71a6.49,6.49,0,0,0,2.62-1.1c4.75-2.74,9.46-5.51,14.2-8.26.55-.32,1.17-.54,1.42-1.2a2.89,2.89,0,0,1,1.49.86c-.28.86-1.09,1.15-1.75,1.53-5.37,3.09-10.77,6.14-16.17,9.2A3.41,3.41,0,0,1,583,322.71Z" transform="translate(-256.38 -207.51)"/><path class="cls-78" d="M516.72,480.48c1.13-1.82,3.23-2.24,4.88-3.28,3.81-2.38,7.79-4.49,11.67-6.76a4.08,4.08,0,0,1,1.8-.51,3.29,3.29,0,0,1,1.79,1c-1.56-.26-2.74.72-3.93,1.39-4.41,2.46-8.74,5.08-13.12,7.61a1.94,1.94,0,0,0-1.21,1.62A3.93,3.93,0,0,1,516.72,480.48Z" transform="translate(-256.38 -207.51)"/><path class="cls-79" d="M540.35,336l18.46-10.71a1.4,1.4,0,0,1,.46-.1l.18.45c.17.15.29.39.58.38h0c.17.92-.58,1.27-1.15,1.62-4.91,3.1-10.12,5.68-15,8.78a2.18,2.18,0,0,1-1.82.31.37.37,0,0,1-.38-.16l-.53-.35Z" transform="translate(-256.38 -207.51)"/><path class="cls-80" d="M574.7,318c2.41.24,3.87-1.64,5.72-2.61,2.92-1.56,5.73-3.32,8.65-4.89,1.44-.78,3.24-1.28,4-3.06a2.58,2.58,0,0,1,1.48.88c.31,1.13-.56,1.58-1.28,2-4.65,2.77-9.36,5.44-14.05,8.14a2.92,2.92,0,0,1-2.92.44A2.77,2.77,0,0,1,574.7,318Z" transform="translate(-256.38 -207.51)"/><path class="cls-81" d="M365.08,363.48c.65-1.25,1.74-.8,2.45-.34,3.17,2.06,6.5,3.81,9.76,5.72a54.94,54.94,0,0,0,6,3.27,4.55,4.55,0,0,1,0,1.91c-3.05-.06-5.09-2.28-7.54-3.6-3.54-1.9-6.77-4.39-10.71-5.53Z" transform="translate(-256.38 -207.51)"/><path class="cls-82" d="M365.08,364.91c.45-.47.83-.84,1.6-.38,4.27,2.53,8.6,5,12.87,7.51,1.23.74,2.51,1.35,3.78,2a2.57,2.57,0,0,1,0,1.43c-2.13-.48-3.86-1.79-5.7-2.84-3.45-2-6.83-4-10.26-6-.76-.44-1.6-.75-2.28.21A5,5,0,0,1,365.08,364.91Z" transform="translate(-256.38 -207.51)"/><path class="cls-83" d="M563.39,327.9c-.13.29-.19.71-.42.83-1.94,1.08-3.67,2.54-5.61,3.56-3.51,1.85-7,3.73-10.41,5.75a8,8,0,0,1-1.55.57,3.57,3.57,0,0,1-1.81-1q9.24-5.11,18.26-10.59a1.2,1.2,0,0,1,.95.52c.19.14.3.38.56.39Z" transform="translate(-256.38 -207.51)"/><path class="cls-84" d="M663.13,272.81c0,1-.74,1.29-1.44,1.69q-7.17,4.15-14.31,8.34c-.54.32-1,.7-1.57,1.06h0c-.21-.36-.69-.23-1-.5a.55.55,0,0,1-.54-.32c-.36-.86.35-1.16.85-1.44,5.31-3,10.51-6.2,15.87-9.1a3,3,0,0,1,1.16-.23l.45.17a1.72,1.72,0,0,1,.46.34Z" transform="translate(-256.38 -207.51)"/><path class="cls-85" d="M484.55,292.93c0-6.18,0-12.35,0-18.53,0-.8.34-1.84-1-2.07a3.16,3.16,0,0,1,1.78-1c.92.61.61,1.56.62,2.39,0,6.12,0,12.24,0,18.36A2.51,2.51,0,0,1,484.55,292.93Z" transform="translate(-256.38 -207.51)"/><path class="cls-86" d="M595.43,537.62a3.52,3.52,0,0,1-1.83,1c-1.29-.09-1.22-1.16-1.23-2-.08-5.59-.06-11.18,0-16.77a3.47,3.47,0,0,1,.68-2,2.51,2.51,0,0,1,1.47-.87c.72.82.45,1.82.46,2.75,0,5,0,10,0,15.06A4.4,4.4,0,0,0,595.43,537.62Z" transform="translate(-256.38 -207.51)"/><path class="cls-87" d="M481.71,235.89c1.32.25.91,1.31.92,2.09,0,5.71,0,11.41,0,17.11,0,.48,0,1,0,1.43a3,3,0,0,1-1.45.91c-.1-7.15-.2-14.3.05-21.45A.62.62,0,0,1,481.71,235.89Z" transform="translate(-256.38 -207.51)"/><path class="cls-88" d="M591.56,556.24c0,6.1,0,12.2.05,18.3,0,.83-.3,1.77.51,2.45a4.2,4.2,0,0,1-1.91,1.11,2.57,2.57,0,0,1-.75-2.18c0-5.48,0-11,0-16.44a3,3,0,0,1,1.18-2.71A1.2,1.2,0,0,1,591.56,556.24Z" transform="translate(-256.38 -207.51)"/><path class="cls-89" d="M590.63,556.77a5,5,0,0,0-.48,2.3q0,9.51.06,19l-.51.3c-1.31-.22-1-1.26-1-2.06,0-5.22,0-10.44,0-15.66,0-.94,0-1.89,0-2.84A4.05,4.05,0,0,1,590.63,556.77Z" transform="translate(-256.38 -207.51)"/><path class="cls-90" d="M482,273.23c.91.62.6,1.57.61,2.4q0,9.19.05,18.38a2.58,2.58,0,0,1-1.48.88c-.12-7.17-.15-14.34,0-21.51Z" transform="translate(-256.38 -207.51)"/><path class="cls-60" d="M593,517.9q0,9.15,0,18.31c0,.83-.3,1.77.55,2.43a2.94,2.94,0,0,1-1.53.89c-.77-.7-.45-1.63-.46-2.46,0-5.22,0-10.44,0-15.66,0-.86-.08-1.73-.12-2.6l0,0c.27,0,.4-.26.56-.42A1.19,1.19,0,0,1,593,517.9Z" transform="translate(-256.38 -207.51)"/><path class="cls-33" d="M594.91,554.29a2.42,2.42,0,0,1,1.48-.86c.48,3.47.16,7,.18,10.43a86.69,86.69,0,0,1-.18,10.69,1.07,1.07,0,0,1-.9.52c-1.19.45-1.44-.36-1.45-1.21-.06-5.89-.07-11.78,0-17.67A2.59,2.59,0,0,1,594.91,554.29Z" transform="translate(-256.38 -207.51)"/><path class="cls-90" d="M482.14,310.71c.61.45.5,1.12.5,1.74,0,5.71,0,11.41,0,17.11a5.19,5.19,0,0,1-.47,2.3l-.52.48c-.76-.38-.53-1.09-.53-1.68,0-6,0-11.93,0-17.9a2.72,2.72,0,0,1,.56-2A.94.94,0,0,1,482.14,310.71Z" transform="translate(-256.38 -207.51)"/><path class="cls-90" d="M481.74,348.63c1.19.21.88,1.16.89,1.89,0,3.27,0,6.54,0,9.81v8.85l-.95.68c-.66-.29-.56-.9-.56-1.44q0-9.21,0-18.41C481.13,349.48,481,348.85,481.74,348.63Z" transform="translate(-256.38 -207.51)"/><path class="cls-91" d="M608.92,300.15a2.9,2.9,0,0,0,1.82-.45c3.45-2.38,7.35-4,10.77-6.47a27.79,27.79,0,0,1,3.91-2.14,3.55,3.55,0,0,0,1.73-1.53,1.12,1.12,0,0,1,.94.52c.17.17.3.39.57.4h.06c-.78,1.26-2.22,1.52-3.37,2.19-4.86,2.86-9.75,5.68-14.62,8.51A3.36,3.36,0,0,1,608.92,300.15Z" transform="translate(-256.38 -207.51)"/><path class="cls-92" d="M640,280.55a4.51,4.51,0,0,0,2.26-.64l14.55-8.47A3.67,3.67,0,0,0,658.3,270a2.52,2.52,0,0,1,1.47.88c0,1.41-1.19,1.82-2.1,2.3-4.33,2.25-8.51,4.73-12.62,7.34-1,.66-2.13,1.46-3.52.94A2.86,2.86,0,0,1,640,280.55Z" transform="translate(-256.38 -207.51)"/><path class="cls-93" d="M415.44,400.81q-7.8-4.47-15.61-8.94a7.93,7.93,0,0,1-2.29-1.64l.12-1.33c2.7.57,4.8,2.34,7.13,3.62,3.08,1.68,6.1,3.47,9.1,5.28C415,398.49,416.08,399.21,415.44,400.81Z" transform="translate(-256.38 -207.51)"/><path class="cls-86" d="M397.65,382.66c2.32,1.33,4.6,2.7,6.9,4s4.7,2.53,7,3.9c1.52.91,3.24,1.58,4.34,3.1v1.44c-5.94-3.18-11.74-6.58-17.46-10.12-.35-.22-.49-.63-.76-.92A2.81,2.81,0,0,1,397.65,382.66Z" transform="translate(-256.38 -207.51)"/><path class="cls-94" d="M561.85,327c-.46,1.55-2,2.11-3.14,2.61A54.29,54.29,0,0,0,553,333c-2.23,1.32-4.72,2.17-6.75,3.87a4,4,0,0,1-2.7.74.68.68,0,0,1-.63-.39c2.31-2.18,5.2-3.51,7.9-5.05,3.35-1.91,6.61-4,10.1-5.66A1,1,0,0,1,561.85,327Z" transform="translate(-256.38 -207.51)"/><path class="cls-83" d="M641.53,281.46a17.71,17.71,0,0,0,4.45-2.24c3.57-2.2,7.22-4.3,10.92-6.29a22.19,22.19,0,0,0,2.87-2.05,1.23,1.23,0,0,1,1,.51.61.61,0,0,1,.1.67c-2.36,2.56-5.7,3.6-8.51,5.47-2.23,1.48-4.7,2.6-7,4a2.82,2.82,0,0,1-2.88.45A1,1,0,0,1,641.53,281.46Z" transform="translate(-256.38 -207.51)"/><path class="cls-95" d="M415.88,396.58V398l-.31.15a1.51,1.51,0,0,1-.58-.35c-2.92-2.79-6.84-4-10.06-6.34-2.32-1.67-5.19-2.46-7.28-4.5a2.44,2.44,0,0,1,0-1.44c1-.71,1.67.11,2.37.51,4.56,2.62,9.06,5.33,13.69,7.84A4.44,4.44,0,0,1,415.88,396.58Z" transform="translate(-256.38 -207.51)"/><path class="cls-76" d="M642.42,282c2.35-.14,4-1.85,5.9-2.85,3.56-1.84,7-3.9,10.48-5.89a23.13,23.13,0,0,0,1.92-1.37.49.49,0,0,1,.62-.07.39.39,0,0,1,.35.15l.51.37h0c-3.1,2.23-6.61,3.76-9.78,5.86-2.63,1.76-5.75,2.71-8.1,4.91A4.36,4.36,0,0,1,642.42,282Z" transform="translate(-256.38 -207.51)"/><path class="cls-96" d="M397.65,387a57.67,57.67,0,0,1,8.92,4.82c2,1.23,4.09,2.34,6.14,3.5,1.1.63,2.59,1.05,2.73,2.71-.53.5-1.07.19-1.52-.08-4.95-2.94-10-5.74-15-8.63a5,5,0,0,1-1.3-1.37Z" transform="translate(-256.38 -207.51)"/><path class="cls-96" d="M481.15,438.69l-.47-.37a2.66,2.66,0,0,1-.6-1.24c-.26-1.28-1.4-1.66-2.33-2.19-4.49-2.53-8.89-5.19-13.39-7.7a3,3,0,0,1-1.56-1.39,2.49,2.49,0,0,1,.05-1.38c.69-.4,1.22.08,1.76.36,5,2.63,9.77,5.7,14.72,8.41a8.2,8.2,0,0,1,1.41,1.28,1.49,1.49,0,0,0,.38,1Z" transform="translate(-256.38 -207.51)"/><path class="cls-97" d="M415.88,396.58a8,8,0,0,0-3.06-2.54c-4.67-2.59-9.26-5.29-13.87-8a2.63,2.63,0,0,0-1.3-.52,2.65,2.65,0,0,1,0-1.45c4.48,2.23,8.59,5.11,13,7.53.85.47,1.79.67,2.58,1.2a8.26,8.26,0,0,1,2.68,2.31Z" transform="translate(-256.38 -207.51)"/><path class="cls-83" d="M576.26,318.87a5.9,5.9,0,0,0,3.31-1.21c3.84-2.19,7.66-4.41,11.44-6.71,1.25-.76,2.86-1.1,3.5-2.67l.47.19a1.09,1.09,0,0,1,.44.32l0,0a1.68,1.68,0,0,1-1,1.46q-7.38,4.26-14.74,8.57a4.87,4.87,0,0,1-2.53.54A1.06,1.06,0,0,1,576.26,318.87Z" transform="translate(-256.38 -207.51)"/><path class="cls-98" d="M594.91,554.29a6.88,6.88,0,0,0-.44,2.55c0,5.39,0,10.78,0,16.17,0,.82-.29,1.84,1,2.06a4.46,4.46,0,0,1-1.92,1.1q0-9.51-.06-19a5.21,5.21,0,0,1,.48-2.31A1.21,1.21,0,0,1,594.91,554.29Z" transform="translate(-256.38 -207.51)"/><path class="cls-99" d="M598.26,552.35a7.85,7.85,0,0,0-.43,2.55c0,5.39,0,10.78,0,16.17,0,.82-.31,1.85,1,2.07a4,4,0,0,1-1.91,1.09c-.69-.63-.52-1.47-.52-2.24,0-5.42,0-10.84,0-16.26,0-1,0-2.09.92-2.84A1.19,1.19,0,0,1,598.26,552.35Z" transform="translate(-256.38 -207.51)"/><path class="cls-98" d="M594,463.26c-.76-.71-.44-1.64-.45-2.47,0-6.1,0-12.19-.06-18.29a2.4,2.4,0,0,1,1.47-.86,5.19,5.19,0,0,0-.47,2.3q0,9.49,0,19A.52.52,0,0,1,594,463.26Z" transform="translate(-256.38 -207.51)"/><path class="cls-100" d="M597.33,552.89a5.88,5.88,0,0,0-.46,2.31q0,9.51.06,19a.48.48,0,0,1-.54.32c-.59-.47-.47-1.13-.47-1.75,0-5.7,0-11.39,0-17.08a4.87,4.87,0,0,1,.48-2.29A1.2,1.2,0,0,1,597.33,552.89Z" transform="translate(-256.38 -207.51)"/><path class="cls-101" d="M595.43,537.62c-1.31-.25-.93-1.29-.94-2.09,0-6.17,0-12.33,0-18.5a1.15,1.15,0,0,1,.94-.53q0,9.16,0,18.32c0,.83-.28,1.78.61,2.41A.71.71,0,0,1,595.43,537.62Z" transform="translate(-256.38 -207.51)"/><path class="cls-102" d="M561,326.49c-1.49,1.72-3.6,2.54-5.49,3.6q-4.22,2.36-8.35,4.84c-1.36.82-2.79,1.48-4.16,2.27a1.07,1.07,0,0,1-.91-.52c3.3-1.92,6.57-3.87,9.89-5.75,2.76-1.57,5.7-2.83,8.11-5a.32.32,0,0,1,.36.16,3.34,3.34,0,0,0,.53.37Z" transform="translate(-256.38 -207.51)"/><path class="cls-102" d="M397.66,387.94,409,394.55c1.44.84,2.89,1.66,4.31,2.53a4.82,4.82,0,0,0,2.16.94c.31.25.17.69.44,1l0,1.91-.48-.08a2,2,0,0,0-1-2c-1.56-.94-3.17-1.79-4.73-2.74-4-2.44-8.22-4.43-12-7.14A1.28,1.28,0,0,1,397.66,387.94Z" transform="translate(-256.38 -207.51)"/><path class="cls-103" d="M463,424.42l0,1.43a2.17,2.17,0,0,1,.39,1c0,.53-.19,1-.79,1.06a.2.2,0,0,1-.12-.24c0-1.72.07-3.45.11-5.17a.44.44,0,0,1,.59.07,1.69,1.69,0,0,1,.26,1A1.36,1.36,0,0,1,463,424.42Z" transform="translate(-256.38 -207.51)"/><path class="cls-41" d="M448.09,408.09h.41a22.27,22.27,0,0,1,0,4.32.46.46,0,0,1-.64-.12,1.92,1.92,0,0,1-.28-.68,8.92,8.92,0,0,1,0-2.58A1.44,1.44,0,0,1,448.09,408.09Z" transform="translate(-256.38 -207.51)"/><path class="cls-104" d="M448.09,412.4l.41,0a18.26,18.26,0,0,1,0,3.84.5.5,0,0,1-.62-.1,2.76,2.76,0,0,1-.29-.66,7.71,7.71,0,0,1-.08-1.8A1.72,1.72,0,0,1,448.09,412.4Z" transform="translate(-256.38 -207.51)"/><path class="cls-83" d="M448.09,416.23l.41,0a15.37,15.37,0,0,1,0,3.39,1.25,1.25,0,0,1-.42-.08,2.87,2.87,0,0,1-.55-1.32,4.42,4.42,0,0,1,0-1.09A1.47,1.47,0,0,1,448.09,416.23Z" transform="translate(-256.38 -207.51)"/><path class="cls-41" d="M462.94,422.47l-.38,0v-2.88l.38,0a1.27,1.27,0,0,1,.42.55,3.14,3.14,0,0,1,0,1.77A1.22,1.22,0,0,1,462.94,422.47Z" transform="translate(-256.38 -207.51)"/><path class="cls-20" d="M505.78,490.58c-.46,0-.86-.05-1-.57A1.13,1.13,0,0,1,505.78,490.58Z" transform="translate(-256.38 -207.51)"/><path class="cls-3" d="M408.71,531.39a.86.86,0,0,1,.94.54A1.08,1.08,0,0,1,408.71,531.39Z" transform="translate(-256.38 -207.51)"/><path class="cls-85" d="M483.62,293.46a.88.88,0,0,1,.89-.51A1,1,0,0,1,483.62,293.46Z" transform="translate(-256.38 -207.51)"/><path class="cls-96" d="M415.88,399a1,1,0,0,1-.44-1h.44Z" transform="translate(-256.38 -207.51)"/><path class="cls-77" d="M582.05,322.22a.91.91,0,0,1,.9.49A1,1,0,0,1,582.05,322.22Z" transform="translate(-256.38 -207.51)"/><path class="cls-72" d="M598.77,310.72a.87.87,0,0,1-.91-.54A1.09,1.09,0,0,1,598.77,310.72Z" transform="translate(-256.38 -207.51)"/><path class="cls-3" d="M495.11,228.2a.9.9,0,0,1-.89.5A1,1,0,0,1,495.11,228.2Z" transform="translate(-256.38 -207.51)"/><path class="cls-2" d="M496.52,302.47c-.15.48-.54.56-1,.55A1.08,1.08,0,0,1,496.52,302.47Z" transform="translate(-256.38 -207.51)"/><path class="cls-48" d="M644.87,283.39a.87.87,0,0,1,1,.5A1.07,1.07,0,0,1,644.87,283.39Z" transform="translate(-256.38 -207.51)"/><path class="cls-21" d="M669.81,276.67a.94.94,0,0,1-.92-.52A1,1,0,0,1,669.81,276.67Z" transform="translate(-256.38 -207.51)"/><path class="cls-74" d="M625.63,288.67a.85.85,0,0,1-.89-.54A1,1,0,0,1,625.63,288.67Z" transform="translate(-256.38 -207.51)"/><path class="cls-85" d="M483.59,272.32a.9.9,0,0,1-.91.51A1,1,0,0,1,483.59,272.32Z" transform="translate(-256.38 -207.51)"/><path class="cls-2" d="M507,474.83a.63.63,0,0,1,.55.36A.47.47,0,0,1,507,474.83Z" transform="translate(-256.38 -207.51)"/><path class="cls-54" d="M578.94,320.39a.68.68,0,0,1,.66.38A.68.68,0,0,1,578.94,320.39Z" transform="translate(-256.38 -207.51)"/><path class="cls-48" d="M663.12,272.81l-.46-.34A.44.44,0,0,1,663.12,272.81Z" transform="translate(-256.38 -207.51)"/><path class="cls-37" d="M592.07,518.42a.61.61,0,0,1-.56.42A.57.57,0,0,1,592.07,518.42Z" transform="translate(-256.38 -207.51)"/><path class="cls-102" d="M541.14,336.17l.53.35A.47.47,0,0,1,541.14,336.17Z" transform="translate(-256.38 -207.51)"/><path class="cls-72" d="M599.35,311.14l-.55-.4A.54.54,0,0,1,599.35,311.14Z" transform="translate(-256.38 -207.51)"/><path class="cls-6" d="M510.34,476.75a.75.75,0,0,1,.62.39A.58.58,0,0,1,510.34,476.75Z" transform="translate(-256.38 -207.51)"/><path class="cls-50" d="M534.22,469.43a.8.8,0,0,1-.7-.4A.72.72,0,0,1,534.22,469.43Z" transform="translate(-256.38 -207.51)"/><path class="cls-48" d="M565.78,329.34a.59.59,0,0,1-.57-.41A.58.58,0,0,1,565.78,329.34Z" transform="translate(-256.38 -207.51)"/><path class="cls-42" d="M419.67,537.69a.56.56,0,0,1,.56.35A.48.48,0,0,1,419.67,537.69Z" transform="translate(-256.38 -207.51)"/><path class="cls-20" d="M486.78,500.76a.71.71,0,0,1,.65.39A.61.61,0,0,1,486.78,500.76Z" transform="translate(-256.38 -207.51)"/><path class="cls-39" d="M594.49,500.6a.59.59,0,0,1,.57-.35A.55.55,0,0,1,594.49,500.6Z" transform="translate(-256.38 -207.51)"/><path class="cls-46" d="M472.22,508.78l-.62-.37A.56.56,0,0,1,472.22,508.78Z" transform="translate(-256.38 -207.51)"/><path class="cls-52" d="M563.36,327.91a.61.61,0,0,1-.56-.39A.53.53,0,0,1,563.36,327.91Z" transform="translate(-256.38 -207.51)"/><path class="cls-3" d="M496.09,248.75l.54-.35A.46.46,0,0,1,496.09,248.75Z" transform="translate(-256.38 -207.51)"/><path class="cls-31" d="M489.36,252.64a.63.63,0,0,1,.58-.37A.52.52,0,0,1,489.36,252.64Z" transform="translate(-256.38 -207.51)"/><path class="cls-84" d="M661.34,271.79l-.62.07v-.47A.67.67,0,0,1,661.34,271.79Z" transform="translate(-256.38 -207.51)"/><path class="cls-94" d="M560.94,326.5a.6.6,0,0,1-.53-.37A.48.48,0,0,1,560.94,326.5Z" transform="translate(-256.38 -207.51)"/><path class="cls-84" d="M662.2,272.31l-.51-.37A.46.46,0,0,1,662.2,272.31Z" transform="translate(-256.38 -207.51)"/><path class="cls-1" d="M583.92,560.64l-.54.44A.6.6,0,0,1,583.92,560.64Z" transform="translate(-256.38 -207.51)"/><path class="cls-44" d="M632.92,292.93l-.52-.38A.48.48,0,0,1,632.92,292.93Z" transform="translate(-256.38 -207.51)"/><path class="cls-21" d="M668.91,276.16l-.49-.37A.51.51,0,0,1,668.91,276.16Z" transform="translate(-256.38 -207.51)"/><path class="cls-71" d="M628.66,290.48a.6.6,0,0,1-.57-.4A.53.53,0,0,1,628.66,290.48Z" transform="translate(-256.38 -207.51)"/><path class="cls-2" d="M474.38,493.56l.58.36A.52.52,0,0,1,474.38,493.56Z" transform="translate(-256.38 -207.51)"/><path class="cls-44" d="M665.55,274.24l-.5-.36A.47.47,0,0,1,665.55,274.24Z" transform="translate(-256.38 -207.51)"/><path class="cls-102" d="M560,326a.6.6,0,0,1-.58-.38A.53.53,0,0,1,560,326Z" transform="translate(-256.38 -207.51)"/><path class="cls-6" d="M445.07,514.22a.61.61,0,0,1,.6.36A.54.54,0,0,1,445.07,514.22Z" transform="translate(-256.38 -207.51)"/><path class="cls-44" d="M646.65,284.39a.71.71,0,0,1,.63.39A.73.73,0,0,1,646.65,284.39Z" transform="translate(-256.38 -207.51)"/><path class="cls-76" d="M595.42,308.79l-.44-.32A.42.42,0,0,1,595.42,308.79Z" transform="translate(-256.38 -207.51)"/><path class="cls-21" d="M463,412.91a6.3,6.3,0,0,1,.27-2.74,52,52,0,0,1,6.4,3.49c2.85,1.59,5.56,3.43,8.49,4.83,2.07,1,2.94,2.28,2.56,4.48a1.57,1.57,0,0,1-1.56-.23c-5.06-2.81-10-5.84-15-8.64A3.3,3.3,0,0,1,463,412.91Z" transform="translate(-256.38 -207.51)"/><path class="cls-103" d="M463,420.11c0-.17,0-.34,0-.51l0-1.9a1.36,1.36,0,0,1,1.77.06c4.66,3,9.66,5.34,14.3,8.32a4.49,4.49,0,0,1,1.66,1.69c0,.8,0,1.6,0,2.4-2,.35-3.18-1.21-4.68-2-3.88-2-7.49-4.43-11.31-6.52A3.9,3.9,0,0,1,463,420.11Z" transform="translate(-256.38 -207.51)"/><path class="cls-89" d="M480.7,427.77l-15.77-9.27a4.13,4.13,0,0,0-2-.8c0-.8,0-1.6,0-2.4,1-.71,1.84,0,2.6.46,4.22,2.53,8.53,4.88,12.78,7.34a5.14,5.14,0,0,1,2.34,2.27Z" transform="translate(-256.38 -207.51)"/><path class="cls-41" d="M480.7,425.37c-4-2.69-8.27-5-12.51-7.28-1.73-.94-3.17-2.43-5.21-2.79v-2.39c4.35,2.08,8.36,4.8,12.59,7.1,1.74.95,3.42,2,5.13,3Z" transform="translate(-256.38 -207.51)"/><path class="cls-105" d="M463,420.11c2.68,1.54,5.41,2.94,8,4.63,3.1,2,6.47,3.64,9.72,5.43,0,.63,0,1.27,0,1.91a1.49,1.49,0,0,1-1.57-.22c-4.83-3-10-5.42-14.79-8.55A9,9,0,0,1,463,422Z" transform="translate(-256.38 -207.51)"/><path class="cls-106" d="M463,422a2.23,2.23,0,0,1,1.1.4c5.36,3.54,11.18,6.3,16.64,9.67,0,.48,0,1,0,1.44-2.21-.21-3.81-1.71-5.6-2.76-3.27-1.91-6.58-3.77-9.9-5.58a8.8,8.8,0,0,1-2.24-1.72c0-.33,0-.66-.05-1C463,422.32,463,422.17,463,422Z" transform="translate(-256.38 -207.51)"/><path class="cls-107" d="M463,423.46c2.67,1,5,2.69,7.5,4,3.49,1.87,6.84,4,10.24,6,0,.32,0,.64,0,1a42.51,42.51,0,0,1-7.5-4.08c-2.55-1.59-5.29-2.85-7.8-4.5-.8-.53-1.64-1-2.45-1.47Z" transform="translate(-256.38 -207.51)"/><path class="cls-93" d="M462.57,427.91l.39-1.11c2.69.18,4.5,2.14,6.65,3.36,3.75,2.15,7.7,4,11.07,6.74v1.42c-3.49-1.53-6.63-3.7-9.94-5.57A76.27,76.27,0,0,1,462.57,427.91Z" transform="translate(-256.38 -207.51)"/><path class="cls-108" d="M448.06,418.17c0,.47,0,.93,0,1.4L436.46,413c-1.66-.94-3.3-1.93-5-2.87a2.86,2.86,0,0,1-1.25-1.05c0-.32.07-.65.11-1,.72-.59,1.39-.19,2,.19,4.55,2.95,9.38,5.44,14,8.28A4.31,4.31,0,0,1,448.06,418.17Z" transform="translate(-256.38 -207.51)"/><path class="cls-21" d="M430.36,394.2a6,6,0,0,1,.18-2.57c.72-.34,1.24.15,1.76.44,4.6,2.65,9.13,5.41,13.79,7.94a3.25,3.25,0,0,1,2,3.77c-.7.58-1.4.21-2-.14-4.92-2.92-10-5.63-14.86-8.61A5.61,5.61,0,0,1,430.36,394.2Z" transform="translate(-256.38 -207.51)"/><path class="cls-109" d="M448.09,408.09l0,1c-1.86.59-2.95-.93-4.24-1.68-3.89-2.29-7.88-4.41-11.73-6.77a3.77,3.77,0,0,1-1.72-1.58c0-.81,0-1.62,0-2.43.65-.63,1.32-.35,2,0,5,2.78,9.85,5.73,14.82,8.51a3.06,3.06,0,0,1,.92,1.07Z" transform="translate(-256.38 -207.51)"/><path class="cls-104" d="M430.38,399c4.05,2.46,8.31,4.52,12.3,7.11a24,24,0,0,0,5.39,2.92c0,1,0,1.92,0,2.87a1.47,1.47,0,0,1-1.56-.22c-5.11-3-10.29-5.89-15.38-8.93a2.23,2.23,0,0,1-.76-.88Z" transform="translate(-256.38 -207.51)"/><path class="cls-41" d="M448.07,406.18c-4.46-2.25-8.69-4.89-13-7.38-1.48-.85-2.83-2.1-4.69-2.2v-2.4c1.87.33,3.25,1.63,4.84,2.48,3.56,1.91,7,4.08,10.47,6.11a5.6,5.6,0,0,0,2.4,1Z" transform="translate(-256.38 -207.51)"/><path class="cls-110" d="M430.38,401.9c2.94,1.18,5.49,3.06,8.25,4.59,3.18,1.75,6.3,3.62,9.45,5.44,0,.16,0,.32,0,.47,0,.49,0,1,0,1.46a1.61,1.61,0,0,1-1.59-.18c-5.07-2.76-10.09-5.61-15-8.62a2.93,2.93,0,0,1-1.07-1.24Z" transform="translate(-256.38 -207.51)"/><path class="cls-83" d="M430.38,403.82c4.78,2.76,9.54,5.53,14.33,8.28,1.09.63,2.23,1.18,3.36,1.76,0,.64,0,1.27,0,1.91-2.22.07-3.77-1.47-5.47-2.49-3.26-1.95-6.6-3.74-9.88-5.62a7.18,7.18,0,0,1-2.36-2Z" transform="translate(-256.38 -207.51)"/><path class="cls-94" d="M430.37,405.71c1.54.27,2.64,1.41,3.95,2.11,4.66,2.5,9.18,5.28,13.76,7.95,0,.15,0,.31,0,.46,0,.33,0,.66,0,1-2.73-.67-4.86-2.48-7.23-3.8-3-1.66-5.95-3.26-8.78-5.14a3.77,3.77,0,0,1-1.68-1.6Z" transform="translate(-256.38 -207.51)"/><path class="cls-102" d="M430.38,406.68c4.11,2.8,8.56,5.05,12.81,7.61l4.88,2.93v.95c-3-1.84-6.05-3.43-9.05-5.18s-5.56-3.64-8.66-4.89C430.37,407.63,430.37,407.15,430.38,406.68Z" transform="translate(-256.38 -207.51)"/><path class="cls-102" d="M480.68,436.9c-2.21-1.21-4.43-2.39-6.61-3.63-3.72-2.12-7.27-4.55-11.11-6.47,0-.31,0-.63,0-.95,4.4,2.21,8.57,4.81,12.82,7.29a38.31,38.31,0,0,1,3.93,2.25C480.27,435.8,480.72,436.16,480.68,436.9Z" transform="translate(-256.38 -207.51)"/><path class="cls-2" d="M265,697.84q-8.64-8.75-8.64-26.13T265,645.49q8.66-8.84,24.73-8.84a70.63,70.63,0,0,1,11.09.94,85.67,85.67,0,0,1,10.71,2.16v17H302q-2.55-8.26-12.79-8.27a13.51,13.51,0,0,0-11.47,6q-4.32,6-4.32,17.25t4.37,17.11a14.18,14.18,0,0,0,12.08,5.92q5.27,0,8.08-2a11,11,0,0,0,4.05-6.21h9.58v16.92a73.54,73.54,0,0,1-21.8,3.1Q273.67,706.58,265,697.84Z" transform="translate(-256.38 -207.51)"/><path class="cls-2" d="M325.75,691.92l14.1-43.8h-9.59L333,637.78h31.77l17.58,54.14q1.13,3.2,3.47,3.2h3.39v10.34H359.68V695.12h5.64l-3.76-13.45h-19l-4.13,13.45h5.83v10.34H318.13V695.12h4.14Q324.71,695.12,325.75,691.92ZM345,672.56h14.19l-6.58-22.47h-.94Z" transform="translate(-256.38 -207.51)"/><path class="cls-2" d="M483.57,695.12h3.29v10.34H459.13V695.12h5.17V655.26l-18.23,50.2H432.91l-18.43-50.1v39.76h5.17v10.34h-25V695.12h3.29c1.75,0,2.63-.79,2.63-2.35v-42.3a2.07,2.07,0,0,0-2.35-2.35h-3.57V637.78h30.83l16.36,45.68,16.07-45.68h28.95v10.34h-3.57a2.08,2.08,0,0,0-2.35,2.35v42.3C480.94,694.33,481.82,695.12,483.57,695.12Z" transform="translate(-256.38 -207.51)"/><path class="cls-2" d="M497.11,648.12V637.78H532a24.34,24.34,0,0,1,10.58,2,19.87,19.87,0,0,1,8.55,7.33,21.68,21.68,0,0,1,3.53,12.5q0,10-6.3,16.17t-16.64,6.11h-12v13.26h6.58v10.34H497.11V695.12h3.29c1.75,0,2.63-.79,2.63-2.35v-42.3a2.07,2.07,0,0,0-2.35-2.35Zm30.27,1.59h-7.71V670h7.8a9.26,9.26,0,0,0,7.38-2.59,9.6,9.6,0,0,0,2.77-7.66,10.25,10.25,0,0,0-2.58-7.28Q532.44,649.71,527.38,649.71Z" transform="translate(-256.38 -207.51)"/><path class="cls-2" d="M568.45,692.77v-42.3a2.07,2.07,0,0,0-2.35-2.35h-3.57V637.78h52.36v19.55h-8.65l-3.57-7.62H585.09v15.7h19.74v10.25H585.09v18h18.43l3-7.89h8.65v19.74H562.53V695.12h3.29C567.58,695.12,568.45,694.33,568.45,692.77Z" transform="translate(-256.38 -207.51)"/><path class="cls-2" d="M633.78,697.84q-8.64-8.75-8.65-26.13t8.65-26.22q8.65-8.84,24.72-8.84a70.65,70.65,0,0,1,11.1.94,86,86,0,0,1,10.71,2.16v17h-9.59q-2.54-8.26-12.78-8.27a13.5,13.5,0,0,0-11.47,6q-4.32,6-4.32,17.25t4.37,17.11a14.17,14.17,0,0,0,12.08,5.92q5.26,0,8.08-2a10.94,10.94,0,0,0,4-6.21h9.59v16.92a73.56,73.56,0,0,1-21.81,3.1Q642.43,706.58,633.78,697.84Z" transform="translate(-256.38 -207.51)"/><path class="cls-2" d="M758.05,695.12h3.29v10.34H732.76V695.12h5.93V677H712.93v18.15h5.92v10.34H690.37V695.12h3.29c1.75,0,2.63-.79,2.63-2.35v-42.3a2.07,2.07,0,0,0-2.35-2.35h-3.57V637.78h28.48v10.34h-5.92V665h25.76V648.12h-5.93V637.78h28.58v10.34h-3.57a2.07,2.07,0,0,0-2.35,2.35v42.3C755.42,694.33,756.29,695.12,758.05,695.12Z" transform="translate(-256.38 -207.51)"/><path class="cls-2" d="M777.51,692.77v-42.3a2.08,2.08,0,0,0-2.35-2.35h-3.58V637.78h52.36v19.55h-8.65l-3.57-7.62H794.14v15.7h19.74v10.25H794.14v18h18.43l3-7.89h8.64v19.74H771.58V695.12h3.29C776.63,695.12,777.51,694.33,777.51,692.77Z" transform="translate(-256.38 -207.51)"/><path class="cls-111" d="M279.46,734.05a7.89,7.89,0,0,0-6.67,3q-2.31,3-2.31,8.9,0,5.47,2.31,8.57a8,8,0,0,0,6.81,3.1,15.49,15.49,0,0,0,5-.82v-6.48h-6v-5.61h14.07v16.41a40.88,40.88,0,0,1-6.77,1.83,41.67,41.67,0,0,1-7.3.72q-8.25,0-12.52-4.61t-4.28-13.39q0-8.31,4.95-13T280.23,728a45.41,45.41,0,0,1,5.66.43,39.74,39.74,0,0,1,5.76,1.16v8.68h-5C285.75,735.44,283.36,734.05,279.46,734.05Z" transform="translate(-256.38 -207.51)"/><path class="cls-111" d="M303.7,759c-2.95-3.1-4.42-7.51-4.42-13.2s1.47-10.1,4.42-13.2,7-4.66,12.09-4.66,9.16,1.55,12.1,4.66,4.42,7.5,4.42,13.2-1.48,10.1-4.42,13.2-7,4.66-12.1,4.66S306.64,762.11,303.7,759Zm12.09-25Q308,734,308,745.81t7.82,11.81q7.83,0,7.83-11.81T315.79,734Z" transform="translate(-256.38 -207.51)"/><path class="cls-111" d="M354.67,763.09H338.21v-5.28h1.68c.9,0,1.34-.4,1.34-1.2V735a1.06,1.06,0,0,0-1.2-1.2h-1.82v-5.28h16.94a12.6,12.6,0,0,1,7.92,2.33,8,8,0,0,1,3.51,6.93,8.21,8.21,0,0,1-3.7,7.2v.24a7.85,7.85,0,0,1,4.85,7.59,8.94,8.94,0,0,1-3.58,7.53Q360.58,763.09,354.67,763.09Zm-1.29-28.71h-3.65v8.41h4.42a3.63,3.63,0,0,0,2.73-1.16,4.36,4.36,0,0,0,1.11-3.17,3.87,3.87,0,0,0-1.2-3A4.8,4.8,0,0,0,353.38,734.38Zm1.1,13.73h-4.75v9.12h3.89a5.5,5.5,0,0,0,4-1.27,4.54,4.54,0,0,0,1.32-3.43,4.22,4.22,0,0,0-1.25-3.29A4.56,4.56,0,0,0,354.48,748.11Z" transform="translate(-256.38 -207.51)"/><path class="cls-111" d="M377,756.61V735a1.06,1.06,0,0,0-1.2-1.2H374v-5.28h14.54v5.28h-1.82c-.77,0-1.17.35-1.2,1.06v21.84c.06.73.51,1.1,1.34,1.1h1.68v5.28H374v-5.28h1.68C376.59,757.81,377,757.41,377,756.61Z" transform="translate(-256.38 -207.51)"/><path class="cls-111" d="M398.16,756.61V735a1.06,1.06,0,0,0-1.2-1.2h-1.82v-5.28h26.73v10h-4.41l-1.83-3.88h-9v8h10.08v5.23H406.66V757h9.41l1.53-4H422v10.08H395.14v-5.28h1.68C397.71,757.81,398.16,757.41,398.16,756.61Z" transform="translate(-256.38 -207.51)"/><path class="cls-111" d="M442.75,763.09H428.69v-5.28h1.68c.9,0,1.34-.4,1.34-1.2V735a1.06,1.06,0,0,0-1.2-1.2h-1.82v-5.28h17.14q6.29,0,9.48,2.76a9.22,9.22,0,0,1,3.19,7.32,8.7,8.7,0,0,1-1.8,5.61,8.27,8.27,0,0,1-5,2.93,8.75,8.75,0,0,1,4.2,2.5,6.32,6.32,0,0,1,1.32,4.18v1.24a2.42,2.42,0,0,0,.72,2.09,5,5,0,0,0,2.35.65v5.28a32.86,32.86,0,0,1-3.89.24q-4.21,0-6-1.87t-1.75-5.91v-1.92a3.71,3.71,0,0,0-1.18-2.88,4.32,4.32,0,0,0-3-1h-4.32v8.11h2.54Zm2.16-28.46h-4.7v9.83h4.7c3.24,0,4.85-1.75,4.85-5.28C449.76,736.15,448.15,734.63,444.91,734.63Z" transform="translate(-256.38 -207.51)"/><path class="cls-111" d="M498.72,735v28.08h-9l-13.83-22.37v17.09h3v5.28H466v-5.28h1.68c.89,0,1.34-.4,1.34-1.2V735a1.06,1.06,0,0,0-1.2-1.2H466v-5.28h12.19L492,751V733.81h-3v-5.28h12.82v5.28h-1.83A1.06,1.06,0,0,0,498.72,735Z" transform="translate(-256.38 -207.51)"/><path class="cls-111" d="M511.63,759c-2.94-3.1-4.41-7.51-4.41-13.2s1.47-10.1,4.41-13.2,7-4.66,12.1-4.66,9.15,1.55,12.09,4.66,4.42,7.5,4.42,13.2-1.47,10.1-4.42,13.2-7,4.66-12.09,4.66S514.58,762.11,511.63,759Zm12.1-25q-7.83,0-7.83,11.81t7.83,11.81q7.82,0,7.82-11.81T523.73,734Z" transform="translate(-256.38 -207.51)"/><path class="cls-111" d="M559.78,728.53h16.7q7.39,0,11.76,4.37t4.37,12.72q0,8.4-4.39,12.93t-11.74,4.54h-16.7v-5.28h1.68c.89,0,1.34-.4,1.34-1.2V735a1.06,1.06,0,0,0-1.2-1.2h-1.82Zm24.14,17.09c0-3.75-.7-6.52-2.11-8.33s-3.57-2.71-6.48-2.71h-4V757h4Q583.92,757,583.92,745.62Z" transform="translate(-256.38 -207.51)"/><path class="cls-111" d="M601.58,756.61V735a1.06,1.06,0,0,0-1.2-1.2h-1.82v-5.28H625.3v10h-4.42l-1.82-3.88h-9v8h10.08v5.23H610.08V757h9.41l1.53-4h4.42v10.08H598.56v-5.28h1.68C601.14,757.81,601.58,757.41,601.58,756.61Z" transform="translate(-256.38 -207.51)"/><path class="cls-111" d="M664.17,734.63v22.08c.07.73.52,1.1,1.35,1.1h1.68v5.28H652.66v-5.28h1.67q1.35,0,1.35-1.2v-22h-5.81l-1,5.56h-4.7V728.53H675.7v11.66H671l-1-5.56Z" transform="translate(-256.38 -207.51)"/><path class="cls-111" d="M685.2,759c-3-3.1-4.42-7.51-4.42-13.2s1.47-10.1,4.42-13.2,7-4.66,12.09-4.66,9.16,1.55,12.1,4.66,4.42,7.5,4.42,13.2-1.48,10.1-4.42,13.2-7,4.66-12.1,4.66S688.14,762.11,685.2,759Zm12.09-25q-7.81,0-7.82,11.81t7.82,11.81q7.83,0,7.83-11.81T697.29,734Z" transform="translate(-256.38 -207.51)"/><path class="cls-111" d="M719.71,728.53h16.7q7.4,0,11.76,4.37t4.37,12.72q0,8.4-4.39,12.93t-11.74,4.54h-16.7v-5.28h1.68c.9,0,1.34-.4,1.34-1.2V735a1.06,1.06,0,0,0-1.2-1.2h-1.82Zm24.14,17.09c0-3.75-.7-6.52-2.11-8.33s-3.57-2.71-6.48-2.71h-4V757h4Q743.86,757,743.85,745.62Z" transform="translate(-256.38 -207.51)"/><path class="cls-111" d="M763,759c-3-3.1-4.42-7.51-4.42-13.2s1.47-10.1,4.42-13.2S770,728,775.1,728s9.15,1.55,12.1,4.66,4.41,7.5,4.41,13.2-1.47,10.1-4.41,13.2-7,4.66-12.1,4.66S766,762.11,763,759Zm12.09-25q-7.83,0-7.82,11.81t7.82,11.81q7.83,0,7.83-11.81T775.1,734Z" transform="translate(-256.38 -207.51)"/><path class="cls-111" d="M810.24,757.86a5.89,5.89,0,0,0,3.74-1.15,3.64,3.64,0,0,0,1.82-3.32,3.37,3.37,0,0,0-1.24-2.59c-.84-.73-2.6-1.46-5.28-2.16a40.61,40.61,0,0,1-5.57-1.77,12.06,12.06,0,0,1-4.08-2.88,8.83,8.83,0,0,1-1.78-5.72,8.61,8.61,0,0,1,3.51-7.39q3.69-3,10.56-2.93a34,34,0,0,1,5.47.48,41.52,41.52,0,0,1,5.57,1.3v8.64h-5a4.91,4.91,0,0,0-3-4,7.6,7.6,0,0,0-3.36-.79,6.29,6.29,0,0,0-3.72,1,3.13,3.13,0,0,0-1.36,2.67,2.63,2.63,0,0,0,.72,1.82,5.38,5.38,0,0,0,2,1.3q.81.33,5,1.53c3.68,1,6.27,2.23,7.75,3.72a9.54,9.54,0,0,1,2.48,6.41,10.46,10.46,0,0,1-3.53,8.33q-3.67,3.38-10.59,3.34a44.51,44.51,0,0,1-6-.53,31,31,0,0,1-6.14-1.44v-8.93h5.13a5.08,5.08,0,0,0,2.07,3.72A7.79,7.79,0,0,0,810.24,757.86Z" transform="translate(-256.38 -207.51)"/></svg>